<svg version="1.1" id="Layer_1" xmlns="http://www.w3.org/2000/svg" xmlns:xlink="http://www.w3.org/1999/xlink" x="0px" y="0px"
	 width="100%" viewBox="0 0 1024 1024" enable-background="new 0 0 1024 1024" xml:space="preserve">
<path fill="#000000" opacity="1.000000" stroke="none" 
	d="
M997.337524,472.675232 
	C981.103027,461.315277 964.316406,451.940674 945.008118,447.927612 
	C942.616821,447.430634 939.865295,446.167145 937.988953,448.432709 
	C936.245667,450.537598 937.995544,452.871368 938.821594,454.997681 
	C943.457092,466.930145 950.513672,477.414185 958.356567,487.410980 
	C980.215393,515.272827 995.276123,546.291321 1001.720520,581.249084 
	C1004.442688,596.015137 1005.785339,610.926575 1005.003784,625.966309 
	C1004.923279,627.515930 1005.350464,629.358337 1003.497131,630.412354 
	C1001.355347,629.633118 1001.486328,627.468689 1000.821655,625.895081 
	C990.683777,601.894043 975.150696,582.413879 952.956604,568.475952 
	C951.969360,567.855957 950.969727,567.245789 949.930359,566.721191 
	C948.480591,565.989563 946.978088,564.678894 945.324646,565.910156 
	C943.720093,567.104919 944.244141,568.961975 944.632629,570.545959 
	C950.262207,593.501465 954.156799,616.781799 956.764343,640.237244 
	C962.609863,692.819824 953.190430,741.702209 920.456238,784.650513 
	C916.801270,789.446045 912.220093,793.359985 908.004639,797.620422 
	C907.346069,798.286072 906.588684,799.115723 904.842590,798.127441 
	C907.618958,791.726501 909.392273,784.903870 910.280396,777.869690 
	C912.978394,756.502563 911.001587,735.690735 902.576355,715.732056 
	C899.609924,708.704956 898.597473,708.959595 893.836243,714.646667 
	C888.710510,720.769104 887.397461,727.427368 887.060364,735.272705 
	C885.081360,781.332397 871.262939,823.853455 846.904602,862.898865 
	C827.823059,893.485718 803.551880,918.945312 771.923035,936.901428 
	C754.923828,946.552002 736.856506,952.969788 717.380859,955.156982 
	C714.820557,955.444519 712.137878,955.867188 708.867004,954.271118 
	C713.153748,947.569092 717.286011,941.108521 722.082947,933.608826 
	C717.974182,934.460327 716.019104,936.552368 713.881470,938.145020 
	C687.337646,957.921204 659.613586,975.725708 628.649292,987.845093 
	C599.517456,999.247253 569.305664,1006.314697 538.144043,1009.450562 
	C517.703308,1011.507568 497.256836,1012.116089 476.817505,1010.220520 
	C425.229889,1005.436035 377.824982,989.867493 338.180389,955.067932 
	C334.456665,951.799316 330.176758,952.139832 326.056061,951.443115 
	C279.479675,943.568176 244.187515,920.179260 223.247604,876.978577 
	C219.903534,870.079468 218.555817,863.742065 219.128418,858.792908 
	C229.475555,862.671753 239.126663,868.714783 250.527664,868.600525 
	C251.494446,865.901062 250.257904,863.954651 249.604080,861.964294 
	C247.047607,854.182190 245.143616,846.261536 244.718262,838.065308 
	C244.250168,829.045898 244.200912,829.100525 235.430511,828.248962 
	C222.775513,827.020325 210.431519,824.567810 199.106354,818.290588 
	C183.616531,809.705078 170.761810,798.445984 162.248215,782.686646 
	C161.424957,781.162720 159.989349,779.754883 160.563095,777.412659 
	C166.249039,778.514465 171.848282,779.981628 177.540985,780.637573 
	C204.987259,783.799683 224.371719,771.518799 237.970078,748.527710 
	C241.445709,742.651367 244.761429,736.680237 248.125381,730.738403 
	C248.923340,729.328979 250.144836,727.994507 249.304398,726.114502 
	C247.879654,724.758667 246.144806,725.270630 244.581192,725.543518 
	C207.511124,732.015076 171.894409,726.248535 137.500885,712.122131 
	C97.927078,695.868164 65.335587,670.947449 43.031395,633.719055 
	C27.964567,608.570740 17.773184,581.691589 13.617362,552.596313 
	C8.491348,516.708557 13.406636,482.177948 28.588942,449.354248 
	C40.359310,423.907104 57.797241,402.547211 78.760490,384.013489 
	C95.743332,368.998840 114.243431,355.828186 131.157867,340.724792 
	C142.506729,330.591064 152.221008,319.276825 157.257065,304.701630 
	C161.461929,292.532013 161.275604,280.546570 154.264328,269.152405 
	C144.664062,253.550751 123.626122,249.908707 109.541763,261.538605 
	C97.562897,271.429932 98.292229,289.687500 111.085114,298.435028 
	C113.271614,299.930115 115.699440,301.092163 118.079720,302.279907 
	C123.323250,304.896515 123.840027,307.459961 119.900604,311.788361 
	C115.494598,316.629395 107.860016,317.180756 99.494293,313.262054 
	C85.964455,306.924377 77.709885,289.675201 80.108887,274.850616 
	C83.878891,251.553955 103.266403,235.661591 127.114410,233.902573 
	C148.508057,232.324585 170.049347,247.208023 177.396408,268.620667 
	C184.641129,289.735077 180.184616,309.432983 169.303925,327.955139 
	C161.290375,341.596649 150.140762,352.622681 137.787842,362.454926 
	C120.456482,376.249756 102.463905,389.300079 86.556358,404.758392 
	C58.665447,431.861664 39.542175,463.938354 34.592712,503.101898 
	C31.579802,526.942139 32.831078,550.642700 41.445786,573.477905 
	C42.127979,575.286255 42.327477,577.397583 44.416298,578.898621 
	C46.804184,575.246338 46.603519,570.981445 47.388309,567.110107 
	C52.506920,541.860107 62.748955,518.996460 78.435844,498.554840 
	C82.136742,493.732208 83.520500,493.531769 87.591743,498.250061 
	C101.382339,514.232483 110.244659,532.621948 114.262711,553.356384 
	C116.942619,567.185608 115.088211,580.823547 112.880630,594.498840 
	C106.325325,635.106995 123.533188,673.341125 161.319412,693.942322 
	C162.847015,694.775146 164.325226,696.109985 166.633606,695.451355 
	C166.933273,692.038818 165.298615,689.034302 164.374451,685.927734 
	C158.201797,665.178589 157.413513,644.268982 163.257538,623.405579 
	C170.760834,596.618408 189.158737,579.005981 213.655136,567.916931 
	C245.689713,553.415527 278.896210,553.850769 312.349640,563.010742 
	C332.136078,568.428528 350.792206,576.154968 366.958405,589.108154 
	C369.880676,591.449646 373.190308,593.524353 374.168060,597.928833 
	C370.017151,599.275696 366.404480,597.576416 362.823273,596.847778 
	C337.956635,591.787659 313.019897,589.945374 288.008850,595.452820 
	C273.569336,598.632385 260.615112,604.828064 250.587372,616.147339 
	C250.255829,616.521545 249.912323,616.885742 249.593140,617.270264 
	C241.575577,626.927795 238.560455,628.563354 227.435638,633.352112 
	C205.314743,642.874084 189.907776,658.806396 182.990906,682.264771 
	C181.650452,686.810852 182.081589,691.525330 182.366470,696.170776 
	C182.613159,700.193359 185.517838,701.763123 188.984680,702.586853 
	C200.735672,705.378784 212.670944,706.443359 224.687241,705.510193 
	C236.811783,704.568665 248.765503,702.522217 260.411530,698.778442 
	C266.514313,696.816589 272.286377,694.357910 277.267731,690.310364 
	C289.092560,680.702148 301.938660,672.728210 315.591034,666.007202 
	C316.740448,665.441284 317.732056,664.554932 319.613586,663.251892 
	C308.935394,656.747620 297.798859,655.349060 285.145355,655.251953 
	C290.677917,649.850098 295.450195,645.353760 301.320526,642.238159 
	C326.063141,629.106018 352.270447,621.200439 380.367828,619.535339 
	C391.373108,618.883179 402.301971,618.495911 413.289825,619.541260 
	C416.120605,619.810547 419.237671,620.481934 422.302246,618.201782 
	C419.243988,611.708191 412.826935,608.167175 408.021973,601.901917 
	C415.214081,601.536438 421.118500,603.009766 427.001160,604.274658 
	C441.352142,607.360413 454.150604,614.143372 466.893707,621.121094 
	C476.833252,626.563599 487.248169,631.054382 497.748749,635.314270 
	C499.701172,636.106384 501.766144,636.620972 504.865112,637.610291 
	C497.278534,614.968811 494.011353,593.493835 510.203796,573.514343 
	C513.163086,598.426636 526.600525,615.826294 548.085327,629.216370 
	C547.620239,617.030762 548.392700,605.974731 551.445557,594.953918 
	C554.827271,596.337524 555.866577,598.759399 557.221252,600.762512 
	C565.287659,612.689758 576.530579,620.283569 589.805847,625.315857 
	C630.276489,640.657288 668.272461,635.437744 703.869324,611.432739 
	C714.630371,604.175964 723.140381,594.561218 729.872253,583.437561 
	C730.871216,581.786987 732.333130,580.155945 730.917725,577.440674 
	C720.709595,577.624146 710.213806,581.430298 699.377747,577.397278 
	C701.972900,574.062805 704.486328,570.847839 706.984497,567.621094 
	C717.072937,554.590149 721.830688,539.607422 723.799927,523.414917 
	C725.297058,511.105072 724.908142,498.818726 724.667480,486.505432 
	C724.622925,484.223053 725.199951,481.381470 722.626831,480.272308 
	C719.871643,479.084717 719.273743,482.257568 717.786743,483.588257 
	C717.035156,484.260864 716.355896,484.995056 715.001770,484.948456 
	C704.444153,433.742493 674.695374,398.088257 626.448730,378.244873 
	C600.717285,367.661804 574.039246,366.660583 547.150818,373.913818 
	C538.070129,376.363312 529.047180,379.078979 520.637695,385.651031 
	C538.516724,394.553223 556.168640,401.981567 569.179626,416.347351 
	C567.725342,418.740936 565.825867,418.595917 564.315979,418.925476 
	C541.731689,423.854492 519.150146,428.802032 496.516876,433.498810 
	C463.962402,440.254456 431.056854,443.225677 397.797302,442.295624 
	C387.638397,442.011536 377.466705,442.150177 367.301056,442.174683 
	C365.543549,442.178925 363.409607,441.858582 362.536896,444.026520 
	C361.805878,445.842407 363.121124,447.181091 364.085022,448.523041 
	C367.389191,453.123138 370.773224,457.667328 374.006531,462.316467 
	C377.215820,466.930969 376.752350,467.951447 371.279846,469.194458 
	C357.096344,472.416046 343.333710,476.824371 330.514893,483.836578 
	C328.692719,484.833282 326.393311,485.353851 325.579590,488.413971 
	C331.406372,491.655212 337.313812,494.942535 343.222382,498.227844 
	C367.414215,511.679138 392.723358,522.346863 420.329498,525.968750 
	C467.806244,532.197632 510.687653,522.282654 546.133850,488.078094 
	C556.440063,478.132904 565.243774,466.695129 576.519409,457.711395 
	C588.092712,448.490509 600.829468,442.913818 616.020142,443.611816 
	C627.447388,444.136871 637.932068,450.682404 641.691284,460.439392 
	C645.735840,470.936890 642.536987,482.681091 634.091553,491.048462 
	C624.942261,500.113251 613.889954,503.459412 601.420288,503.324097 
	C600.156982,503.310425 598.725891,503.662018 597.700195,502.330719 
	C597.427063,500.070801 599.405273,499.320831 600.656250,498.129791 
	C605.234985,493.770355 610.296143,489.862488 613.813354,484.502411 
	C616.491760,480.420746 618.058289,476.095703 615.093811,471.446869 
	C612.550720,467.458740 607.363892,465.672821 601.798767,466.910461 
	C592.849670,468.900604 586.662964,474.940887 580.843933,481.463684 
	C568.855286,494.902313 556.769897,508.243622 542.004211,518.784546 
	C518.683838,535.432434 492.633240,544.582336 464.182922,547.388367 
	C419.215485,551.823547 377.682678,540.692932 338.124969,520.154907 
	C325.611908,513.658264 312.684753,508.624542 298.139038,509.217896 
	C288.292938,509.619476 279.013367,511.875488 270.452972,516.648865 
	C267.730408,518.166992 266.218170,517.682129 263.948486,515.859009 
	C251.405594,505.784180 241.969666,493.675232 238.252792,477.211182 
	C228.683182,480.975281 220.887650,486.361328 214.250900,493.515961 
	C207.700485,500.577545 204.017654,509.391113 199.939972,517.581421 
	C198.016541,517.837341 197.249939,516.856995 196.614609,515.916138 
	C183.540497,496.555664 170.666641,477.074036 165.014618,453.944275 
	C160.921295,437.193176 161.427597,420.828766 170.541443,405.648926 
	C176.813721,395.201935 186.451843,388.324493 196.912216,382.513763 
	C197.494598,382.190216 198.066528,381.816925 198.690048,381.602875 
	C217.646866,375.094727 227.153793,360.112823 233.855728,342.554413 
	C234.664902,340.434448 234.827240,338.942200 232.778000,337.379089 
	C213.857849,322.947174 214.199554,298.978851 224.390198,281.070251 
	C227.891617,274.917053 232.254715,269.476654 237.521347,264.811554 
	C242.857635,260.084747 246.180054,254.370850 247.293045,247.329529 
	C250.993683,223.917450 263.433228,205.311829 279.699646,188.890289 
	C299.651337,168.748337 319.154205,148.223831 335.425476,124.888870 
	C355.703156,95.808159 368.460510,63.799839 372.498932,28.486694 
	C373.064636,23.540236 372.780212,18.497812 372.921814,13.500731 
	C372.958313,12.211298 372.825073,10.831439 374.637024,9.208441 
	C389.696777,34.954498 396.089935,62.704414 397.064758,91.493690 
	C399.784180,92.410378 400.839325,91.051315 401.900940,90.162292 
	C421.449432,73.791428 441.217529,57.642639 457.134918,37.467880 
	C458.679443,35.510281 460.022247,33.394577 461.540131,31.414707 
	C464.313507,27.797230 466.653473,27.894621 468.494934,32.132946 
	C474.883209,46.836014 477.429474,61.976849 473.679962,77.924553 
	C466.997253,106.347786 450.101807,127.012787 425.784760,142.308533 
	C414.508484,149.401459 403.206451,156.526581 393.364044,165.611801 
	C383.936676,174.313904 376.897919,184.743118 371.439880,196.340256 
	C366.195618,207.483200 361.167755,218.760361 352.259857,227.733826 
	C345.420197,234.623795 337.496063,239.520493 328.347229,242.687851 
	C310.664337,248.809799 294.270447,257.186707 281.572906,271.380737 
	C273.952942,279.898804 267.738800,289.245300 265.774017,300.923309 
	C264.972046,305.689758 265.671234,310.218506 266.589722,314.769196 
	C267.000641,316.805115 267.510468,319.272308 270.229126,319.593933 
	C272.719360,319.888550 275.269897,318.959167 276.219940,316.776459 
	C278.407104,311.751434 282.327881,309.220642 287.142975,307.327881 
	C289.997253,306.205902 290.749695,303.075043 291.969086,300.584412 
	C296.167206,292.009735 300.509125,283.610443 308.619476,277.878510 
	C311.640503,275.743439 314.757721,273.895172 318.221069,272.617981 
	C329.919281,268.303955 341.955475,264.919983 353.376587,259.843384 
	C355.094269,259.079895 356.841797,258.935608 358.736115,259.151520 
	C369.587280,260.388397 380.254364,254.620529 384.847229,244.820984 
	C385.916107,242.540390 385.666687,239.512817 383.678406,237.880646 
	C381.250824,235.887863 381.819244,234.080429 382.554291,231.746216 
	C386.152313,220.320267 390.119385,208.961823 397.139526,199.195236 
	C410.628571,180.428955 426.932953,164.763565 449.154816,156.681580 
	C456.164886,154.132065 460.946136,148.103729 467.982178,145.786316 
	C469.119049,145.411865 469.764526,144.235733 469.445435,142.914398 
	C469.072357,141.369568 467.722595,140.986191 466.412048,140.687378 
	C462.275177,139.744080 458.206604,141.617661 453.836090,141.122208 
	C453.788879,138.461639 456.046936,137.929962 457.525421,136.927261 
	C473.932739,125.800179 490.781647,115.222069 505.611938,101.997772 
	C530.342651,79.945183 550.578857,54.679428 559.953735,22.113400 
	C560.643188,19.718489 561.161987,17.273153 561.719971,14.842045 
	C562.261658,12.481752 562.751709,10.109574 563.265198,7.738924 
	C565.567078,8.008749 565.807251,9.755691 566.404480,10.985181 
	C584.183533,47.586227 593.350220,86.038193 591.174194,126.907867 
	C591.138733,127.573479 591.108887,128.240295 591.043030,128.903244 
	C590.029724,139.096161 589.969543,138.902267 600.097900,135.823502 
	C619.860779,129.816101 637.644043,120.419891 652.659790,106.073013 
	C656.041748,102.841660 659.179810,99.406990 661.911194,95.597977 
	C662.697815,94.501007 662.978699,92.413528 665.093933,93.241272 
	C666.944824,93.965576 666.621460,95.661827 666.303040,97.119675 
	C664.275574,106.400444 661.881653,115.522453 657.539551,124.102898 
	C650.884644,137.253769 640.489502,147.453888 631.212341,158.549866 
	C630.385254,159.539062 629.172180,160.324493 629.166199,162.146561 
	C630.957336,163.322571 632.507324,161.947693 634.051086,161.375198 
	C657.467407,152.691116 680.867126,144.053314 705.715271,140.087402 
	C742.555786,134.207489 779.227783,133.353668 815.648743,142.800186 
	C821.046631,144.200241 826.552917,145.633774 832.132690,150.397583 
	C796.032898,157.970871 763.328674,170.058624 738.526855,197.391861 
	C740.419373,200.273331 742.203491,199.414917 743.987854,199.126892 
	C795.318176,190.841324 844.852966,195.759659 891.859985,219.269547 
	C904.008728,225.345566 914.905823,233.262268 925.402222,241.791016 
	C927.327454,243.355362 929.343323,244.808151 931.155640,246.487350 
	C928.974121,249.397964 927.188293,248.414978 925.759033,248.067856 
	C911.404419,244.581345 896.824341,243.691086 882.133423,244.238632 
	C867.041260,244.801117 852.433777,247.879471 838.351318,253.326767 
	C834.673462,254.749435 830.996643,256.354584 828.556030,260.912903 
	C892.209106,273.738190 946.541687,301.475922 985.346924,354.922852 
	C968.748352,348.366241 952.209473,342.217560 934.699463,338.995911 
	C917.301575,335.794861 899.992920,335.117584 882.435730,338.764893 
	C883.187439,342.890747 886.029785,343.288300 888.116272,344.303925 
	C924.246277,361.890106 954.678467,386.567200 979.561035,418.039825 
	C994.531921,436.975800 1007.096558,457.320221 1013.989868,480.731750 
	C1014.458496,482.323425 1014.852600,483.941528 1015.176819,485.568176 
	C1015.259216,485.981232 1014.940063,486.474365 1014.467041,488.077332 
	C1008.772339,482.522217 1003.525024,477.307312 997.337524,472.675232 
M186.146912,453.423645 
	C188.337296,458.928436 190.023499,464.690277 193.849182,469.429565 
	C194.664459,469.083923 195.233780,469.010773 195.523453,468.687225 
	C196.295303,467.825195 197.073380,466.924866 197.626236,465.917511 
	C202.181244,457.617462 209.112930,452.408386 217.959213,449.160004 
	C224.661240,446.698975 231.025055,443.328827 237.590897,440.482086 
	C245.721619,436.956787 251.638321,431.197632 255.775620,423.396271 
	C257.208160,420.695007 258.470001,417.721069 261.280823,415.792816 
	C264.672089,420.080597 267.901001,418.108459 269.891907,415.121124 
	C275.020264,407.425995 280.912720,400.502899 287.918182,394.494110 
	C289.087738,393.490997 290.055267,392.266113 289.680847,390.594543 
	C288.829987,386.795776 291.228302,385.116669 294.070374,383.771851 
	C298.633942,381.612488 303.574860,380.760193 308.468475,379.749603 
	C313.837952,378.640656 319.198883,377.490295 324.563538,376.358002 
	C313.674225,373.046387 302.783936,371.256256 291.578796,369.923492 
	C292.180084,367.653412 293.656769,367.057037 294.842255,366.282288 
	C301.154022,362.157196 308.241058,359.476898 315.161621,356.801605 
	C320.241394,354.837921 326.394745,353.552460 331.757477,355.350098 
	C335.613800,356.642731 338.456482,356.487396 341.513489,354.426086 
	C343.366486,353.176727 345.400421,352.457703 347.541199,352.152100 
	C360.094086,350.359894 371.609009,345.564667 382.723328,339.780792 
	C387.734283,337.173065 392.375671,333.855164 397.184753,330.859497 
	C397.013092,330.433441 396.841431,330.007385 396.669769,329.581329 
	C389.379456,328.908783 382.451233,332.416901 374.752228,332.696503 
	C375.121704,331.367126 375.177551,330.695221 375.476349,330.158691 
	C392.323975,299.910400 418.829803,284.139404 452.366821,278.958923 
	C453.835541,278.732056 455.516174,278.683289 456.318268,280.335938 
	C457.241974,282.239105 456.622894,284.045624 455.091187,285.275940 
	C451.743835,287.964630 448.604523,290.960846 443.857544,291.285217 
	C440.674103,291.502777 437.385498,292.131561 434.624359,296.217010 
	C472.610077,294.598511 506.126556,283.052429 536.058899,261.592346 
	C551.010620,250.872665 562.264404,236.640198 571.361755,219.289536 
	C569.387695,219.689316 568.671204,219.640335 568.206055,219.958588 
	C563.395081,223.250320 558.588318,226.519745 553.500549,229.406311 
	C528.853821,243.389664 501.704071,250.179413 474.630310,257.300873 
	C451.622345,263.352875 428.614380,269.488922 406.968597,279.693420 
	C406.056610,280.123352 405.164154,280.615265 403.823639,279.338165 
	C410.744568,270.087311 416.231567,259.836273 421.482849,249.514389 
	C433.712952,225.475021 452.510864,209.192368 477.520203,199.467087 
	C492.538300,193.627075 508.125763,188.896362 521.413269,179.237579 
	C522.125183,178.720123 523.071533,177.940643 524.012024,179.147217 
	C523.937256,181.080627 522.331360,181.882797 521.153625,182.995834 
	C512.045593,191.603302 501.847076,198.830627 491.792725,206.244766 
	C487.503387,209.407745 483.220093,212.593460 479.117004,215.989853 
	C475.745789,218.780380 476.513641,222.279892 478.470856,225.465714 
	C480.549072,228.848495 482.942596,226.193283 484.924286,225.234680 
	C500.043274,217.921310 513.350769,207.949631 525.985291,196.996567 
	C549.584473,176.537949 565.317444,151.514252 570.206360,120.325096 
	C570.875183,116.058365 572.404053,111.580620 570.817444,106.335434 
	C569.724182,107.530128 569.182068,107.937775 568.879822,108.479271 
	C553.572510,135.904251 530.018494,153.545929 501.617401,165.610718 
	C487.492462,171.610992 472.659454,175.571625 458.424194,181.242172 
	C440.330292,188.449814 426.030304,199.561310 418.732300,218.277939 
	C416.427856,224.188019 414.706818,230.254196 413.283478,236.434174 
	C410.083191,250.329300 405.800568,263.673676 395.748108,274.525665 
	C387.919434,282.976929 378.531067,289.310669 368.695709,294.853180 
	C361.194244,299.080475 358.239716,304.962036 358.319031,313.065948 
	C358.345032,315.722046 358.421967,318.374237 357.581421,320.986664 
	C352.256042,337.538422 331.170532,350.270935 317.135254,347.645752 
	C311.282257,346.551025 305.354279,346.923645 299.736694,350.221497 
	C291.435181,355.095032 284.653198,361.689209 277.630493,368.065552 
	C275.155457,370.312775 272.993134,373.070648 269.003754,374.266602 
	C269.898071,370.684753 270.795044,367.686920 271.382965,364.629700 
	C273.384857,354.219177 270.101135,345.482330 263.170288,341.870697 
	C259.932770,340.183594 257.617737,340.446350 255.778687,343.853516 
	C252.060959,350.741150 247.928146,357.416748 244.457047,364.422791 
	C238.605087,376.234344 229.993820,385.064423 217.996155,390.565277 
	C214.816635,392.023102 211.592590,393.397522 208.486832,394.999878 
	C200.258087,399.245361 192.739456,404.361542 187.670807,412.418396 
	C179.433777,425.511658 180.960220,439.017853 186.146912,453.423645 
M540.474426,865.982849 
	C552.668640,871.120361 565.365173,874.174072 578.486084,875.929504 
	C619.493652,881.415894 658.801147,875.388489 696.559204,858.852234 
	C703.764099,855.696777 710.763794,851.932007 716.722046,846.387268 
	C701.708801,846.451660 686.805542,847.356140 672.400757,841.994202 
	C676.243286,839.185791 680.191833,837.059204 683.379456,833.911438 
	C686.535217,830.794983 690.454712,828.281494 691.978210,823.435486 
	C660.495056,833.431885 628.534058,839.153809 595.807678,840.646606 
	C595.347412,838.112061 596.764771,836.487000 597.466858,834.666016 
	C599.644287,829.018799 598.603882,827.368958 592.497009,827.332397 
	C582.012512,827.269592 571.502930,826.941223 561.083496,828.422852 
	C543.949585,830.859314 528.409912,836.419983 517.803711,851.278687 
	C517.240540,852.067688 516.640564,852.997131 515.254333,852.303406 
	C513.098511,837.989563 513.571899,823.987183 520.461060,810.692078 
	C522.931213,805.924866 521.709229,803.714294 516.539246,803.428467 
	C506.755341,802.887573 496.988159,801.532349 487.153992,803.310425 
	C473.283447,805.818420 462.346680,811.887329 457.775330,826.212708 
	C455.650909,832.869934 455.903320,839.636841 456.778442,846.463684 
	C457.401550,851.324646 459.330811,855.891479 460.490997,860.816833 
	C459.465820,860.816833 459.120178,860.887939 458.818359,860.803162 
	C458.017761,860.578186 457.232819,860.295166 456.447388,860.018860 
	C438.905304,853.849426 426.768768,842.072632 419.811707,824.851074 
	C418.022736,820.422546 416.406464,820.119324 412.902710,823.204651 
	C406.000031,829.282959 405.254272,832.186157 408.828735,841.096313 
	C419.043427,866.558960 438.367157,883.087341 462.583618,894.148315 
	C482.289734,903.149109 503.410767,907.125244 524.984131,908.505127 
	C530.861084,908.881042 536.771301,908.775024 543.687195,905.977905 
	C528.950806,891.428894 518.805481,875.379578 515.935303,854.256531 
	C524.668274,858.238403 531.854492,862.765564 540.474426,865.982849 
M835.991821,738.533325 
	C845.978027,723.490295 852.257202,707.035950 854.996704,689.108643 
	C842.688171,700.096375 832.387024,712.737610 821.537598,724.999023 
	C822.900146,720.043640 823.213318,715.320129 822.949280,710.496826 
	C822.163757,696.145691 810.817200,687.738647 804.029724,676.769165 
	C803.958069,676.653320 803.425476,676.822754 802.474060,676.931458 
	C800.548706,691.543030 798.316711,706.263306 794.680420,720.745178 
	C791.032288,735.274109 787.245789,749.706787 781.516785,763.605835 
	C775.862793,777.322815 767.243591,789.403381 760.426514,802.653564 
	C791.242676,788.057739 817.176208,768.030518 835.991821,738.533325 
M801.221375,368.251831 
	C808.201172,373.944000 815.457825,379.296143 823.150940,383.941986 
	C834.436096,390.757111 845.163757,398.378967 857.996765,402.720123 
	C866.509705,405.599884 874.010742,411.482330 881.946655,416.051910 
	C886.416443,418.625671 891.077576,420.866791 894.890198,424.874146 
	C896.091064,422.266418 895.598450,420.849335 895.063477,419.448120 
	C883.075134,388.049652 864.206482,361.752411 837.135498,341.593170 
	C833.660950,339.005798 829.724548,337.112823 825.545227,335.836914 
	C823.932861,335.344666 822.176880,334.865845 820.867065,336.307434 
	C819.634644,337.663910 820.600281,339.143646 821.162537,340.507935 
	C822.177368,342.970337 823.418213,345.356750 824.225281,347.883301 
	C825.281982,351.191681 827.243225,354.476898 825.472656,358.900024 
	C822.165344,356.082855 819.392700,353.511536 816.404541,351.221497 
	C810.994812,347.075836 805.614746,341.746033 798.732422,341.528900 
	C790.634460,341.273407 783.916809,338.374298 777.110596,334.845306 
	C775.114563,333.810425 773.066589,332.359650 769.726318,334.598175 
	C777.743042,347.917908 788.928406,358.109192 801.221375,368.251831 
M378.044189,796.481018 
	C400.534546,779.761414 426.648987,775.677185 453.922028,775.632507 
	C453.858093,774.751770 453.794159,773.870972 453.730194,772.990173 
	C423.351044,759.658813 392.662750,757.312927 361.148804,772.090332 
	C361.207581,764.374329 366.563812,757.608276 365.581085,749.431152 
	C348.669952,761.300232 338.821533,777.882141 334.768768,797.558350 
	C330.474396,818.407227 332.959564,838.663513 344.500153,857.298950 
	C346.884796,852.109375 348.239807,846.814148 347.859619,841.209351 
	C347.503754,835.963501 347.010834,829.544312 351.298126,826.864990 
	C355.875305,824.004333 357.735931,819.992371 360.187897,816.086365 
	C364.850647,808.658630 370.340179,802.068420 378.044189,796.481018 
M281.643646,753.080566 
	C284.537231,751.116455 287.376251,749.065796 290.333344,747.202515 
	C308.855865,735.531189 329.266907,728.507507 350.204956,722.675598 
	C358.358521,720.404602 366.660248,718.401001 374.198975,714.288269 
	C376.670471,712.939941 378.983398,711.160645 378.550995,708.193665 
	C378.066559,704.869751 374.808746,705.519531 372.464813,705.237488 
	C369.661926,704.900269 366.765045,705.091980 364.201599,703.630859 
	C362.923126,702.902039 361.321167,702.211792 361.673096,700.347107 
	C361.969391,698.777405 363.545410,698.483398 364.799683,698.248352 
	C369.210388,697.421875 373.631592,696.813293 378.150574,696.595520 
	C384.340088,696.297302 390.648071,696.461426 396.703247,694.746399 
	C396.453705,692.811829 395.210022,692.497803 394.232727,691.969788 
	C373.645264,680.846558 352.730530,680.037598 331.418793,689.878662 
	C299.356873,704.683960 278.088837,729.535156 264.517181,761.569397 
	C263.569183,763.807129 262.500183,766.067139 262.497589,769.998657 
	C268.706055,763.395020 274.900116,758.469360 281.643646,753.080566 
M368.423859,647.780457 
	C399.387421,656.987244 427.210022,672.599609 454.305603,689.741882 
	C467.029907,697.792114 480.540710,704.219910 495.116394,708.234070 
	C496.274414,708.552979 497.543365,709.451538 499.086823,707.479675 
	C487.191589,697.362976 477.436859,685.197327 466.471893,673.897034 
	C478.091614,680.267395 490.292358,685.197998 502.758545,692.044617 
	C502.206360,689.922607 502.064789,689.116760 501.784943,688.362244 
	C501.322571,687.115540 500.828094,685.874146 500.248505,684.678345 
	C490.039154,663.614197 472.227539,652.250305 450.489441,646.213318 
	C424.792694,639.077026 398.839539,639.504761 372.856079,644.579895 
	C371.147491,644.913574 368.683960,644.697937 368.423859,647.780457 
M443.116333,96.623772 
	C456.644958,80.706467 466.602325,53.972118 462.091431,45.135662 
	C461.610687,45.666733 461.079803,46.068703 460.788513,46.601639 
	C450.880524,64.731361 436.932800,79.244720 420.995514,92.185349 
	C409.478729,101.536606 396.727173,109.228325 385.531281,118.935760 
	C359.025879,141.917313 339.784027,169.432983 333.787476,204.760910 
	C332.880676,210.103424 331.354248,215.686310 332.889618,221.194687 
	C335.614105,221.282990 336.267731,219.489151 337.249817,218.264114 
	C341.552246,212.897339 344.848663,206.879395 347.450989,200.575256 
	C358.341156,174.193573 375.461304,152.814865 398.287231,135.783081 
	C414.034576,124.033028 429.590576,112.014473 443.116333,96.623772 
M811.340454,615.305298 
	C812.883240,625.005066 815.502625,634.450439 818.091492,643.903442 
	C818.603577,645.773254 818.471191,648.280212 820.994873,648.590942 
	C823.494629,648.898682 824.130188,646.412170 825.055542,644.765015 
	C839.162109,619.652954 849.275818,592.985596 855.577454,564.907104 
	C857.187317,557.733704 859.132141,550.533447 858.536621,542.827148 
	C850.893860,554.103638 844.473938,566.025208 838.284119,578.261902 
	C836.949036,556.718323 824.618958,541.166260 811.483459,525.204102 
	C809.342407,528.787292 809.474548,531.796631 809.405090,534.739380 
	C809.200623,543.396362 809.374207,552.075928 808.808960,560.707886 
	C807.628967,578.727051 808.717529,596.602417 811.340454,615.305298 
M727.500366,715.896667 
	C738.448914,716.235046 749.064148,714.738647 759.160645,710.256165 
	C764.624756,707.830200 765.408020,704.172791 761.405029,699.855042 
	C758.042236,696.227783 754.731262,692.602051 748.632996,693.577515 
	C755.030151,687.820190 761.520081,682.986938 766.023865,676.196106 
	C763.497681,673.841736 761.077820,674.761475 758.707336,675.465576 
	C750.254333,677.976624 741.819763,680.549927 733.356079,683.024048 
	C731.795898,683.480042 730.082825,684.705933 728.014954,682.695251 
	C732.246399,679.088989 737.164368,676.586975 740.445496,671.947266 
	C736.047485,670.052979 731.802795,670.892090 728.092957,669.429504 
	C719.950928,666.219666 712.852234,669.013977 705.869690,672.882080 
	C703.685120,674.092346 701.438293,675.204834 699.331299,676.538025 
	C689.065796,683.033142 679.644592,690.524353 670.985596,700.435852 
	C688.588928,710.753967 706.802368,715.900696 727.500366,715.896667 
M451.490845,304.776978 
	C449.797394,305.109802 447.900177,304.612061 445.453186,306.282288 
	C483.309723,323.758575 521.312622,324.929474 559.885742,313.110657 
	C588.570923,304.321564 612.607666,288.195068 632.689575,264.817230 
	C631.153015,264.589874 630.767883,264.401489 630.543457,264.519318 
	C627.013123,266.372711 623.524597,268.306030 619.986084,270.143127 
	C578.995422,291.424469 534.221741,297.793671 489.231171,303.345093 
	C476.959564,304.859283 464.615906,303.846802 451.490845,304.776978 
M830.978271,447.270203 
	C830.024353,449.122925 830.953369,451.520264 829.457214,453.357208 
	C827.177490,452.149994 827.728149,450.035370 827.453796,448.386139 
	C824.532898,430.826660 814.939331,417.874176 800.095459,408.540771 
	C798.658142,407.637054 797.107361,405.641113 795.254578,407.133942 
	C793.435425,408.599640 795.024231,410.572662 795.484985,412.226501 
	C797.985474,421.200806 800.591919,430.145630 803.453003,440.114899 
	C801.730286,438.778564 800.792847,438.149261 799.968689,437.395905 
	C795.141357,432.983429 789.610901,429.587830 783.998047,426.314606 
	C782.848938,425.644470 781.537415,424.928436 780.282654,425.939941 
	C778.767151,427.161591 779.455994,428.651733 780.159973,430.005646 
	C781.157532,431.924438 782.142761,433.859406 783.289795,435.689331 
	C796.639404,456.985809 810.759033,477.795135 823.598755,499.415283 
	C824.418945,500.796326 825.191162,502.428864 827.233276,502.365479 
	C838.379944,488.951385 847.856995,437.900879 837.038330,420.697845 
	C834.964539,429.802124 833.065796,438.138000 830.978271,447.270203 
M822.596252,297.896149 
	C819.718872,295.122223 816.957397,292.214935 813.945190,289.595978 
	C794.236084,272.459656 773.013245,258.108521 746.496582,253.837692 
	C740.668274,252.898956 734.776184,252.602478 728.938782,253.486389 
	C728.933289,256.144012 730.602417,256.958923 731.645386,258.180054 
	C739.210632,267.037170 747.249756,275.517456 753.610840,285.338745 
	C756.919922,290.447906 756.832275,290.518921 751.348389,292.622498 
	C749.860596,293.193207 748.749756,293.856445 748.775940,295.789398 
	C748.802002,297.716309 749.797668,298.411194 751.428162,298.787659 
	C755.796448,299.796326 760.010437,301.338409 764.540833,301.806915 
	C774.956177,302.884033 785.336853,304.292328 795.740906,305.484253 
	C805.323792,306.582123 814.914185,307.620178 824.512878,308.566956 
	C826.215088,308.734863 828.507080,309.531616 829.447632,307.390594 
	C830.332703,305.375946 828.414307,304.069855 827.242371,302.733765 
	C825.926270,301.233124 824.476624,299.849579 822.596252,297.896149 
M483.521057,350.709534 
	C484.313110,355.539703 487.290161,356.425079 491.699799,355.741516 
	C500.772461,354.335114 509.587585,351.973541 518.323303,349.247894 
	C519.043945,349.023010 519.957703,348.709595 519.760681,347.530334 
	C517.795959,345.998169 515.473938,346.038330 513.127563,346.016144 
	C504.548920,345.934937 495.780396,347.412781 487.722168,342.896881 
	C486.916199,342.445282 485.739838,342.334778 484.803864,342.487061 
	C478.950958,343.439209 473.650238,341.490265 468.287262,339.635132 
	C456.115326,335.424652 445.097931,328.766937 433.494720,323.353363 
	C426.932220,320.291595 426.205444,320.536255 424.521698,327.758179 
	C422.989166,334.331573 420.303131,340.340698 416.696442,346.008026 
	C407.673004,360.186981 394.153229,368.810577 379.607849,376.187653 
	C377.636383,377.187500 375.264221,377.660156 373.830353,380.454041 
	C377.024048,381.574738 379.798981,382.608124 382.612793,383.521790 
	C386.764160,384.869781 390.887085,385.783417 394.623169,382.371399 
	C398.896332,378.468903 402.265686,381.467987 405.941467,383.513123 
	C405.000824,385.497650 402.973877,384.463745 401.664612,385.866425 
	C417.463806,387.648590 432.632324,387.021088 447.503448,382.463989 
	C451.353180,381.284271 454.626678,379.339600 456.078278,374.569305 
	C441.044403,373.275757 426.404541,372.021362 412.335785,363.604889 
	C421.475372,358.924713 426.234955,350.980560 433.093903,345.246521 
	C435.568146,343.178040 438.242615,342.668457 441.461212,343.190369 
	C449.826935,344.547089 458.300018,345.296631 466.615448,346.888336 
	C472.102356,347.938660 478.010986,346.967651 483.521057,350.709534 
M744.729919,884.177246 
	C787.606201,870.538330 831.519531,836.671692 838.145813,811.604431 
	C820.713440,824.532288 802.910645,835.875916 783.021545,844.262573 
	C786.788391,838.853027 790.555176,833.443420 794.386963,827.940552 
	C791.460327,826.577576 789.879517,828.041565 788.139587,828.940552 
	C781.190552,832.531372 774.464966,836.653015 766.960754,839.000000 
	C762.517700,840.389526 759.562622,843.050232 757.223938,846.965027 
	C750.966187,857.440430 743.498596,867.038879 735.039429,875.820496 
	C731.163879,879.843750 726.884033,883.477600 722.787598,887.288147 
	C723.136169,887.772461 723.484802,888.256775 723.833374,888.741089 
	C730.803467,888.691040 737.287048,886.016113 744.729919,884.177246 
M615.022278,919.409119 
	C632.557190,925.961121 650.664124,928.752625 669.330383,927.226685 
	C674.971985,926.765442 677.217651,923.772339 677.995300,918.696777 
	C678.782715,913.557129 675.217773,913.525452 671.573486,912.776184 
	C678.502625,909.338684 684.436584,905.260315 689.371582,897.485291 
	C652.430359,902.545166 616.915100,903.167419 581.327820,897.558960 
	C590.712708,907.712097 602.326965,913.702454 615.022278,919.409119 
M236.373489,307.912903 
	C237.021210,311.347961 237.998947,314.616852 240.850189,317.237457 
	C244.428925,313.553925 245.773376,309.192780 246.653625,304.587555 
	C247.308182,301.163116 247.982300,297.735107 248.844421,294.358948 
	C253.068100,277.818329 263.660431,265.529724 275.866913,254.399170 
	C280.696930,249.994904 285.128510,245.353668 288.420654,239.645126 
	C294.076172,229.838623 299.386017,219.782211 305.741364,210.443451 
	C312.758820,200.131729 315.364105,188.259064 319.445190,176.884232 
	C319.552521,176.584976 319.059113,176.070160 318.885620,175.733139 
	C317.337952,175.322800 316.572815,176.347641 315.781677,177.140045 
	C306.016022,186.921219 295.943817,196.408905 287.109894,207.083710 
	C277.747650,218.396942 270.172913,230.657227 267.833862,245.437332 
	C265.923676,257.507355 260.064209,267.123444 251.210358,275.348175 
	C242.067413,283.841522 234.773468,293.427307 236.373489,307.912903 
M869.658569,458.146454 
	C868.704834,467.481445 870.804260,476.372559 874.325867,484.838867 
	C884.095215,508.325470 894.170654,531.684753 904.130554,555.092102 
	C904.624207,556.252319 904.779175,557.769470 906.590576,557.679016 
	C913.951904,544.085022 911.886292,491.585968 903.418823,479.781372 
	C899.072754,482.765228 897.957764,487.587433 896.642273,492.250397 
	C894.772400,491.445435 894.935486,489.935608 894.471375,488.746368 
	C890.500061,478.570648 885.207458,469.185791 877.304810,461.530640 
	C875.351685,459.638763 873.695984,456.566528 869.658569,458.146454 
M572.715332,686.890686 
	C555.745728,679.898743 538.252319,674.205566 521.734375,665.468750 
	C521.340149,669.473694 521.373901,669.462341 522.224304,671.984985 
	C529.381836,693.217346 543.216492,708.296265 563.756042,717.279175 
	C570.218811,720.105652 581.905701,718.014160 587.761230,712.338135 
	C578.438354,708.533203 569.586426,704.323730 561.803467,697.830872 
	C574.099548,702.567505 586.328796,706.096313 599.208008,700.228882 
	C590.806641,695.214172 582.461365,690.512695 572.715332,686.890686 
M600.201050,647.514771 
	C593.818726,645.449524 587.436401,643.384277 581.054077,641.319031 
	C580.696594,641.791565 580.339111,642.264099 579.981689,642.736572 
	C585.383423,654.962341 594.041016,664.534424 605.639771,671.464539 
	C619.361389,679.663147 633.951111,683.742493 650.634766,680.309326 
	C648.063477,674.874634 641.528259,676.935425 638.993347,671.438110 
	C650.134460,668.979126 661.988464,669.635132 672.515686,661.562073 
	C648.021057,655.664978 624.127441,653.569946 600.201050,647.514771 
M299.046631,782.506653 
	C296.536652,784.240662 294.026703,785.974670 291.091339,788.002625 
	C291.086334,784.942932 294.427673,782.514771 291.038361,780.282593 
	C271.072144,796.043640 268.038666,859.509583 286.590454,874.633423 
	C287.876221,872.863464 287.382843,870.790710 287.692871,868.860718 
	C289.233154,859.271912 288.224701,849.494019 289.752686,839.939148 
	C291.114105,831.425781 293.883057,823.290161 296.581055,815.063232 
	C300.092499,804.356079 302.927094,793.448059 307.765167,783.205872 
	C308.251709,782.175781 308.869202,781.106018 308.037994,779.619324 
	C304.744781,778.274597 302.266144,780.457825 299.046631,782.506653 
M412.018066,945.685425 
	C403.064697,945.178650 394.345093,943.028015 385.320923,941.592957 
	C385.730347,943.883850 387.234894,945.003662 388.528992,946.205566 
	C402.439484,959.125000 418.710602,967.956055 436.706696,973.689697 
	C445.285797,976.422974 454.085602,978.200623 463.104828,978.712158 
	C464.839844,978.810547 466.403931,978.594910 467.228271,976.673645 
	C468.003662,974.866516 467.463409,973.458313 466.258850,972.120911 
	C460.630157,965.871399 456.363525,958.734924 452.978668,951.091309 
	C451.597626,947.972595 449.498016,947.138000 446.299957,947.246338 
	C435.142395,947.624268 424.003662,947.189575 412.018066,945.685425 
M698.310486,221.276917 
	C688.358826,219.124908 678.319275,217.939560 668.113892,218.389206 
	C664.840088,218.533432 661.843567,219.094864 660.095947,221.874451 
	C659.606689,223.960831 662.462585,224.646103 661.333069,226.882416 
	C653.963501,229.871063 646.040955,232.531677 640.908813,241.129745 
	C670.747742,245.672653 698.438477,240.898941 726.806091,230.619232 
	C717.160156,225.840027 708.101135,223.759247 698.310486,221.276917 
M399.558960,418.289642 
	C399.241852,414.469025 402.653687,415.805237 404.385162,414.877869 
	C405.722290,414.161713 407.247681,413.737762 407.381348,411.937378 
	C407.473053,410.701965 406.473206,410.115387 405.490295,409.986053 
	C399.276672,409.168274 394.326172,404.908813 388.205658,403.792633 
	C378.385590,402.001740 368.791199,399.280365 359.302094,396.214050 
	C356.029144,395.156433 352.763153,395.011719 349.462799,395.638428 
	C336.954651,398.013672 325.099091,402.275665 313.903503,408.320343 
	C311.571411,409.579468 309.465118,411.256775 307.254791,412.741394 
	C311.158447,412.818756 314.627808,412.904114 318.100067,413.156189 
	C330.530121,414.058655 342.959595,414.969055 355.391205,415.849670 
	C357.373596,415.990082 359.379486,416.210938 361.295746,415.365845 
	C366.991821,412.853821 372.882233,413.131378 378.225769,415.719604 
	C385.017487,419.009277 391.972870,419.111481 399.558960,418.289642 
M783.887939,526.670227 
	C782.312988,523.472656 778.770325,525.205078 776.690063,524.061890 
	C775.866211,522.407043 776.432983,521.108398 776.580994,519.805786 
	C777.312622,513.367798 776.472046,507.175293 773.604309,501.328705 
	C772.043701,498.147003 770.220703,497.754272 768.355652,501.098846 
	C766.653137,504.151886 765.425842,507.567566 763.274475,510.250488 
	C759.786255,514.600708 759.012573,519.346985 759.148560,524.683533 
	C759.500793,538.500610 758.819031,552.282227 757.533020,566.055725 
	C757.231567,569.284241 755.460693,572.722107 757.372803,576.388550 
	C758.340637,575.877197 759.176697,575.645691 759.723328,575.115601 
	C770.809143,564.366089 780.805481,552.916870 785.289917,537.598877 
	C786.400391,533.805725 786.639160,530.522156 783.887939,526.670227 
M517.671814,759.945801 
	C528.626221,762.557495 539.731262,762.591064 550.880432,761.895630 
	C552.901794,761.769470 554.473816,761.051025 554.835449,758.846680 
	C555.165894,756.832886 555.323059,754.829773 553.256042,753.490906 
	C552.454773,752.971924 551.336975,752.765137 551.190613,751.453857 
	C553.244263,748.935791 557.942993,750.343933 559.289673,745.812683 
	C553.359436,741.245178 546.871399,737.917908 539.149414,737.358765 
	C523.060730,736.193726 507.782593,740.175659 492.619171,744.793091 
	C491.124603,745.248291 489.272308,745.600952 489.011017,748.356262 
	C493.826416,751.493958 499.019287,754.169739 505.137024,754.599121 
	C506.446533,754.690979 508.133362,754.091431 508.838654,755.391907 
	C510.628998,758.693054 513.966736,758.748718 517.671814,759.945801 
M292.819580,436.275818 
	C276.578430,444.847473 265.071991,456.583862 265.837158,477.314850 
	C268.408142,473.876068 269.745300,470.202515 273.047302,467.637421 
	C273.725128,471.400421 270.892609,473.556610 270.368652,476.357086 
	C269.444672,481.295624 274.660980,479.547058 276.285919,482.038391 
	C279.306824,478.681366 281.851654,475.591248 284.668671,472.773224 
	C292.358063,465.081299 300.854126,458.429413 310.387390,453.113556 
	C312.503784,451.933411 315.140442,450.359344 314.188446,447.425262 
	C313.217407,444.432373 310.178223,444.981354 307.716614,445.093872 
	C306.401794,445.153961 305.110504,445.617981 303.795135,445.804840 
	C301.940369,446.068390 299.989380,446.731628 298.026184,444.897522 
	C306.418274,439.235535 316.505707,438.149323 324.699371,432.842834 
	C313.801575,430.012329 303.560425,432.056335 292.819580,436.275818 
M695.790833,321.706879 
	C688.759888,312.550842 680.318237,305.222168 669.343506,301.113617 
	C667.076294,300.264893 664.904358,299.815674 662.579834,300.844086 
	C657.456543,303.110718 656.699646,307.780548 660.344421,313.299255 
	C665.717834,321.435272 672.958801,328.475708 675.268005,338.433563 
	C675.619629,339.950073 676.782349,340.490875 678.126465,340.879272 
	C685.798340,343.096344 693.420776,345.502319 701.148193,347.503357 
	C705.520752,348.635651 707.299805,346.369904 705.881042,341.876404 
	C703.664612,334.856537 700.883240,328.096344 695.790833,321.706879 
M526.641113,971.962280 
	C543.495728,976.197144 560.511597,976.881470 577.562866,973.614014 
	C589.960388,971.238464 593.033997,967.322998 593.316406,955.115723 
	C589.094849,953.274658 584.486816,952.023376 580.755371,949.202393 
	C576.984070,946.351196 573.921631,946.646362 570.091919,949.350769 
	C557.550964,958.206726 543.504578,963.594604 528.483582,966.674438 
	C525.552063,967.275452 522.182861,966.494019 519.362183,968.860413 
	C521.383423,970.653137 523.684143,971.077026 526.641113,971.962280 
M607.653564,220.186142 
	C605.797363,222.629242 603.730347,224.984421 603.862427,228.263412 
	C606.044800,229.269150 607.407471,228.122299 608.816284,227.318497 
	C616.517517,222.924622 623.493103,217.529404 629.831543,211.375153 
	C637.274841,204.148087 643.585999,196.019974 647.971863,186.530914 
	C648.668823,185.023102 649.410522,183.353760 648.080750,181.866333 
	C647.038574,180.700607 645.572876,181.191879 644.323303,181.569778 
	C630.170715,185.849976 615.820679,189.557251 602.286743,195.665695 
	C598.648682,197.307739 595.053772,199.135468 592.609314,202.492279 
	C591.718689,203.715347 590.920044,205.127899 591.956482,206.620499 
	C592.901611,207.981567 594.337524,207.490463 595.620300,207.197510 
	C603.456482,205.408051 611.518250,205.972946 619.426636,204.918167 
	C620.608521,204.760559 622.119934,204.269638 623.285339,206.798355 
	C616.384827,208.855057 612.620483,214.641708 607.653564,220.186142 
M879.081909,620.671814 
	C880.837219,630.139709 882.604614,639.605408 884.335632,649.077698 
	C884.615051,650.606323 884.910706,652.196838 886.637512,652.565125 
	C888.485474,652.959106 889.224854,651.432129 889.910400,650.076050 
	C896.032227,637.965576 900.407654,625.301880 902.089539,611.774841 
	C902.262817,610.381287 902.529541,609.045776 900.840881,608.471741 
	C899.425537,607.990601 898.329651,608.577087 897.261719,609.581970 
	C895.885986,610.876587 895.903687,613.376282 893.317993,614.107727 
	C891.400391,600.812866 886.956543,588.875183 877.693176,578.910217 
	C875.402039,587.796692 873.129395,596.427979 875.057922,605.398865 
	C876.104492,610.267395 877.571228,615.045715 879.081909,620.671814 
M642.178772,714.402588 
	C629.967224,719.398926 619.884216,727.611877 609.475952,734.775085 
	C610.130249,736.942200 611.095520,737.278259 612.037720,737.595032 
	C625.084045,741.980652 638.495911,744.047729 652.240845,743.411804 
	C658.406677,743.126526 664.405212,741.669006 669.969299,738.819336 
	C671.563232,738.003052 673.691406,737.406738 673.499878,735.148865 
	C673.289673,732.670471 671.020142,732.302124 669.082642,731.834229 
	C665.370239,730.937866 661.602295,730.246155 657.933350,729.202271 
	C653.577820,727.963135 649.302429,726.442261 644.387817,724.847290 
	C647.118347,721.477783 649.248596,718.848999 651.419922,716.169556 
	C648.616577,713.846008 645.778381,714.153992 642.178772,714.402588 
M692.253662,778.685120 
	C697.397705,777.351135 702.581665,776.152832 707.677673,774.655273 
	C718.791565,771.389465 729.131470,766.522522 737.984314,758.923157 
	C740.240845,756.986206 743.231873,755.307983 743.147827,751.032715 
	C733.503296,748.760559 725.041260,752.266968 716.424011,756.320496 
	C716.459656,752.118713 719.900330,750.152649 720.583069,746.924683 
	C709.843750,745.155029 683.500610,765.890320 677.638428,780.806213 
	C682.421143,780.979004 686.865845,779.491943 692.253662,778.685120 
M757.404541,354.140045 
	C750.858337,343.269196 742.181763,334.468964 731.528015,327.612061 
	C730.304260,326.824432 728.896912,325.751495 727.414856,326.882477 
	C725.804749,328.111145 726.796753,329.710846 727.426636,330.957733 
	C737.857788,351.606201 745.215210,373.569092 754.726807,394.607513 
	C755.431396,396.166016 755.853333,398.234314 758.238037,398.247589 
	C764.543518,390.691803 764.268799,368.080719 757.404541,354.140045 
M520.751282,944.280151 
	C524.346802,943.599731 527.971436,943.040955 531.525513,942.187866 
	C533.311829,941.759033 536.118774,941.894043 535.938782,939.148071 
	C535.759399,936.410400 532.938599,937.121338 531.152771,936.618591 
	C527.134888,935.487427 522.775269,937.144714 518.181641,935.366211 
	C522.673828,932.355530 528.097900,935.043701 531.789856,931.491638 
	C524.131470,926.036682 481.596985,919.530396 474.863739,922.721558 
	C477.783600,934.755615 501.347748,946.120605 520.751282,944.280151 
M456.714539,715.831482 
	C450.070099,713.564514 443.190765,712.332764 436.273346,711.332703 
	C433.207397,710.889465 430.810577,710.156006 432.291595,706.289062 
	C418.568787,705.717102 397.622955,724.750305 399.022949,736.944519 
	C421.429657,725.314148 445.942719,723.467834 470.220917,719.910400 
	C465.970551,718.639954 461.720184,717.369446 456.714539,715.831482 
M576.457153,781.978699 
	C573.632996,783.568298 570.731628,785.063721 568.705750,787.867615 
	C584.493713,796.149109 623.912109,788.405701 631.946533,775.665222 
	C630.691345,773.901672 628.750732,774.107666 626.980530,774.090088 
	C623.066040,774.051208 619.393311,773.161499 616.003296,771.232483 
	C611.648315,768.754456 607.210083,768.936768 602.518982,770.221191 
	C593.436279,772.708191 585.393066,777.427002 576.457153,781.978699 
M690.151733,266.336670 
	C687.110840,265.341431 683.122803,263.807037 680.997070,265.577057 
	C675.911865,269.811310 668.817017,269.538086 664.094360,274.094666 
	C663.369507,274.794006 662.528503,275.352631 662.700928,276.532501 
	C673.317566,285.567047 715.698975,287.586761 723.927490,281.832703 
	C720.765503,280.031067 717.861145,278.145752 714.765686,276.657837 
	C706.986877,272.918610 699.346130,268.829102 690.151733,266.336670 
M347.331970,914.950317 
	C346.598907,910.899048 344.321564,907.121826 344.753296,902.509521 
	C363.316040,914.863586 366.504791,916.405701 373.217224,915.911316 
	C354.789764,905.277893 337.482056,894.138794 322.950165,878.407410 
	C320.437927,894.391052 340.408966,928.258972 352.759094,929.175842 
	C350.969513,924.514160 349.278229,920.108582 347.331970,914.950317 
M760.991577,623.375366 
	C757.459961,630.290527 752.820251,636.519287 748.248230,642.821472 
	C756.077454,647.194580 777.172546,636.075134 782.270874,625.440979 
	C780.028198,622.893921 777.643188,620.718384 773.615417,622.820923 
	C773.284607,614.029846 777.643066,606.111572 775.703552,596.318726 
	C768.622253,605.009094 765.750549,614.295959 760.991577,623.375366 
M739.291931,442.719971 
	C738.813354,442.117523 738.528076,441.176361 736.807617,441.910919 
	C739.562439,457.526367 739.565796,473.655487 742.967468,489.529419 
	C751.151245,479.615540 756.793823,469.049774 756.835205,456.061127 
	C756.849792,451.472626 754.829773,448.105408 752.086487,444.894775 
	C751.081238,443.718292 749.790100,442.782593 748.144836,443.482361 
	C746.660706,444.113647 746.840271,445.580017 746.704773,446.921204 
	C746.437683,449.565338 747.159485,452.517731 744.364014,455.093445 
	C742.674561,450.902649 741.142517,447.102386 739.291931,442.719971 
M722.421326,635.939270 
	C728.785583,631.457703 733.875122,625.846619 737.404114,618.884155 
	C739.071533,615.594543 737.619568,613.207336 733.939148,613.431091 
	C730.930176,613.614075 728.222351,614.615112 725.875488,616.821594 
	C716.661926,625.484009 707.213562,633.864624 695.678833,639.453674 
	C694.686707,639.934448 693.538696,640.439209 693.293457,641.922913 
	C694.887939,643.622742 697.117371,643.516357 699.196655,643.798096 
	C707.943481,644.983154 714.982666,640.939819 722.421326,635.939270 
M415.321350,902.278320 
	C410.360657,899.525208 405.560669,896.550110 401.245270,892.817139 
	C399.937653,891.686035 398.470490,889.808167 396.494629,890.952942 
	C394.268707,892.242676 395.144348,894.602966 395.789948,896.369934 
	C399.923798,907.684204 406.999786,916.435486 418.583374,920.671814 
	C422.471619,922.093750 426.715057,923.231750 431.307281,921.519653 
	C428.216583,913.569946 426.074005,905.579712 416.847931,903.099304 
	C416.535156,903.015198 416.260345,902.789795 415.321350,902.278320 
M318.222015,301.528229 
	C317.385986,302.072021 316.501587,302.554474 315.721588,303.169373 
	C309.909454,307.751190 308.729187,314.325195 312.594086,320.420502 
	C315.730621,325.367249 322.557526,327.144867 328.029846,324.439789 
	C333.700226,321.636780 336.740021,315.161926 334.794342,310.031250 
	C331.862732,302.300720 326.236298,299.182098 318.222015,301.528229 
z"/>
<path fill="#000000" opacity="1.000000" stroke="none" 
	d="
M635.054871,597.344238 
	C614.682007,596.821472 599.256836,584.916992 596.184937,566.739319 
	C593.952698,553.530212 597.710938,542.018066 608.851929,533.638245 
	C609.763000,532.953003 610.666687,532.142334 612.374634,532.471558 
	C612.684509,535.548218 612.801208,538.774719 613.363586,541.921570 
	C615.484192,553.789124 626.272827,561.818298 637.503113,559.934570 
	C645.415222,558.607483 650.293884,553.783813 652.194214,546.148987 
	C654.153931,538.275330 650.421143,532.321960 645.037842,527.078369 
	C643.999023,526.066528 642.263367,525.843079 641.577271,523.584167 
	C645.585632,522.785217 649.495850,523.295837 653.145691,524.252625 
	C668.849731,528.369446 678.414673,539.409546 679.760620,557.054810 
	C680.854736,571.398560 673.679260,582.201477 661.457886,589.596008 
	C653.493713,594.414673 644.982727,597.482544 635.054871,597.344238 
z"/>
<path fill="#000000" opacity="1.000000" stroke="none" 
	d="
M202.881012,182.642090 
	C199.187592,169.699295 204.707245,159.299271 216.605576,156.145020 
	C227.093170,153.364731 238.134598,160.393677 240.761322,171.522491 
	C242.809265,180.199127 236.842087,190.817627 228.136398,193.988388 
	C217.842010,197.737778 208.091370,193.484467 202.881012,182.642090 
z"/>
<path fill="#000000" opacity="1.000000" stroke="none" 
	d="
M242.831802,677.483826 
	C236.150131,673.059326 234.359436,669.038086 236.221512,663.250244 
	C238.208038,657.075562 242.328079,654.327576 249.064102,654.684509 
	C255.289505,655.014343 260.649872,661.283997 260.102997,667.596008 
	C259.563538,673.821960 253.061172,679.339050 247.010437,678.621948 
	C245.712784,678.468201 244.454453,677.982849 242.831802,677.483826 
z"/>
<path fill="#000000" opacity="1.000000" stroke="none" 
	d="
M482.936951,461.092224 
	C494.247620,463.440979 498.072601,471.398315 492.189362,479.453278 
	C489.219696,483.519135 485.182648,485.391663 480.452789,483.945740 
	C476.020660,482.590851 472.558105,479.549438 471.770782,474.583740 
	C470.962830,469.487885 473.402588,464.700134 477.820404,462.512177 
	C479.275360,461.791626 480.961761,461.538330 482.936951,461.092224 
z"/>
<path fill="#000000" opacity="1.000000" stroke="none" 
	d="
M224.737183,408.395447 
	C228.621490,408.425323 227.033890,411.137085 227.161179,412.742218 
	C227.568619,417.881042 228.323090,418.388306 232.856812,416.247070 
	C239.769821,412.982117 246.091141,409.158569 247.852188,400.524597 
	C250.045242,403.167145 248.530792,405.365143 248.194229,407.367249 
	C245.816223,421.512970 237.943161,432.112640 226.183426,439.887421 
	C220.412506,443.702759 218.302185,443.106476 216.638428,436.355316 
	C213.515823,423.684448 212.658127,414.622040 224.737183,408.395447 
z"/>
</svg>