<?xml version="1.0" standalone="no"?>
<!DOCTYPE svg PUBLIC "-//W3C//DTD SVG 20010904//EN"
 "http://www.w3.org/TR/2001/REC-SVG-20010904/DTD/svg10.dtd">
<svg version="1.0" xmlns="http://www.w3.org/2000/svg"
 width="500.000000pt" height="500.000000pt" viewBox="0 0 500.000000 500.000000"
 preserveAspectRatio="xMidYMid meet">

<g transform="translate(0.000000,500.000000) scale(0.100000,-0.100000)"
fill="#000000" stroke="none">
<path d="M2694 4992 c-34 -12 -75 -50 -95 -89 -17 -33 -19 -60 -19 -244 0
-123 4 -219 11 -236 24 -63 86 -105 158 -106 57 -1 102 22 138 70 l28 36 3
219 c3 204 2 222 -17 261 -27 55 -78 89 -139 93 -26 2 -56 0 -68 -4z"/>
<path d="M1374 4631 c-55 -33 -79 -78 -79 -146 0 -58 4 -66 99 -230 54 -93
108 -180 119 -193 31 -34 116 -56 164 -42 48 13 64 25 97 74 20 29 26 51 26
90 0 46 -9 67 -102 230 -121 211 -146 236 -237 236 -37 0 -66 -6 -87 -19z"/>
<path d="M3954 4631 c-40 -24 -52 -42 -163 -235 -81 -142 -91 -165 -91 -209 0
-140 131 -215 252 -144 40 23 56 45 132 176 134 233 141 253 110 332 -25 62
-82 99 -153 99 -37 0 -66 -6 -87 -19z"/>
<path d="M2539 3955 c-634 -77 -1177 -507 -1405 -1112 -157 -417 -132 -915 67
-1333 228 -478 689 -840 1202 -945 428 -86 896 0 1260 232 825 526 1050 1603
506 2419 -91 135 -291 339 -429 436 -352 248 -775 355 -1201 303z m415 -346
c228 -30 464 -135 664 -297 435 -351 614 -960 437 -1489 -102 -304 -296 -555
-562 -727 -231 -149 -464 -217 -743 -217 -160 0 -275 16 -410 58 -450 138
-814 525 -924 982 -117 481 15 954 363 1301 315 314 720 448 1175 389z"/>
<path d="M445 3694 c-65 -34 -95 -82 -95 -154 0 -56 22 -103 61 -132 66 -50
339 -199 373 -205 108 -17 198 58 198 167 0 57 -21 101 -64 133 -18 13 -106
65 -194 115 -175 99 -214 110 -279 76z"/>
<path d="M4915 3696 c-72 -32 -332 -189 -357 -216 -71 -77 -49 -208 44 -260
32 -18 51 -21 96 -18 48 4 75 15 177 75 l120 71 3 181 2 181 -27 0 c-16 -1
-41 -7 -58 -14z"/>
<path d="M83 2395 c-113 -68 -106 -237 13 -295 36 -18 61 -20 247 -20 229 0
254 5 300 59 67 80 51 190 -37 255 -26 20 -43 21 -254 24 l-227 2 -42 -25z"/>
<path d="M4905 2401 c-45 -28 -72 -61 -85 -106 -29 -99 55 -215 155 -215 l25
0 0 170 0 170 -32 0 c-18 0 -46 -8 -63 -19z"/>
<path d="M594 1204 c-186 -106 -218 -131 -235 -182 -30 -90 13 -186 96 -217
70 -27 105 -17 285 86 183 105 222 138 237 198 29 110 -50 211 -165 211 -42 0
-68 -11 -218 -96z"/>
<path d="M4605 1282 c-96 -61 -120 -173 -55 -255 29 -37 365 -228 412 -235
l38 -5 -2 183 -3 182 -120 71 c-106 62 -127 71 -180 74 -47 3 -67 0 -90 -15z"/>
<path d="M1591 480 c-18 -4 -45 -17 -60 -27 -37 -28 -232 -366 -238 -415 l-6
-38 183 2 183 3 74 130 c63 112 73 136 73 178 0 115 -98 193 -209 167z"/>
<path d="M3824 481 c-78 -19 -124 -83 -124 -168 0 -43 10 -66 74 -179 l74
-129 182 -3 183 -2 -5 38 c-5 33 -151 303 -210 385 -35 48 -110 74 -174 58z"/>
<path d="M2702 182 c-62 -19 -122 -96 -122 -157 l0 -25 171 0 172 0 -6 40 c-6
49 -26 80 -69 113 -35 27 -107 41 -146 29z"/>
</g>
</svg>
