<?xml version="1.0" standalone="no"?>
<!DOCTYPE svg PUBLIC "-//W3C//DTD SVG 20010904//EN"
 "http://www.w3.org/TR/2001/REC-SVG-20010904/DTD/svg10.dtd">
<svg version="1.0" xmlns="http://www.w3.org/2000/svg"
 width="2320.000000pt" height="2320.000000pt" viewBox="0 0 2320.000000 2320.000000"
 preserveAspectRatio="xMidYMid meet">

<g transform="translate(0.000000,2320.000000) scale(0.100000,-0.100000)"
fill="#000000" stroke="none">
<path d="M12740 23019 c0 -45 -36 -218 -71 -337 -41 -141 -138 -381 -217 -537
-105 -207 -337 -544 -516 -750 -107 -122 -399 -417 -506 -509 -200 -173 -622
-483 -895 -657 -105 -67 -171 -117 -118 -90 12 6 25 16 28 21 3 6 12 10 18 10
8 0 8 -3 2 -8 -5 -4 -19 -18 -30 -32 l-20 -24 27 17 c20 12 28 13 32 4 3 -6 3
-2 1 9 -4 17 0 23 21 28 14 4 29 5 32 1 3 -3 -2 -5 -11 -5 -21 0 -21 1 -2 -43
8 -20 15 -52 15 -71 0 -39 18 -87 37 -99 7 -4 13 -17 13 -28 0 -20 7 -20 71
-3 9 3 16 -2 16 -11 0 -10 -7 -13 -23 -9 -20 5 -84 -19 -84 -32 0 -2 14 3 31
11 17 9 35 15 41 13 6 -2 -23 -19 -63 -37 -41 -18 -95 -44 -121 -57 -27 -13
-51 -25 -55 -26 -10 -2 -167 -76 -388 -182 -452 -218 -688 -416 -877 -735
-104 -177 -171 -361 -242 -676 -109 -477 -198 -655 -390 -782 -199 -131 -446
-211 -796 -258 -409 -55 -591 -114 -757 -247 -132 -105 -200 -202 -339 -482
-121 -243 -167 -300 -296 -364 -89 -44 -258 -115 -263 -110 -1 2 -14 50 -29
108 -36 138 -44 294 -23 406 43 228 209 498 442 722 140 135 204 186 339 269
196 121 330 185 621 295 262 98 376 169 540 333 152 151 215 248 380 583 214
432 278 531 485 745 177 185 307 284 755 579 263 173 431 306 581 459 278 285
448 601 558 1036 71 280 48 570 -73 913 -51 143 -85 192 -124 177 -9 -3 -39
-41 -68 -84 -128 -191 -438 -524 -749 -804 -94 -85 -225 -198 -480 -412 -46
-40 -118 -101 -158 -135 -40 -35 -76 -61 -80 -57 -3 3 -10 88 -14 188 -13 313
-42 524 -113 807 -54 213 -88 320 -156 481 -70 168 -191 418 -217 449 l-21 25
-1 -158 c-1 -582 -172 -1231 -494 -1877 -195 -391 -468 -779 -905 -1290 -121
-141 -205 -230 -559 -593 -392 -403 -598 -666 -714 -915 -51 -107 -119 -315
-153 -467 -41 -185 -74 -296 -98 -334 -11 -19 -90 -107 -175 -194 -109 -112
-172 -188 -218 -259 -235 -362 -273 -758 -103 -1062 71 -127 185 -248 293
-311 19 -11 23 -3 -139 -341 -107 -225 -208 -363 -326 -450 -26 -19 -149 -88
-274 -154 -250 -133 -333 -186 -464 -295 -193 -162 -300 -319 -375 -550 -40
-122 -56 -241 -56 -404 0 -470 186 -947 635 -1631 56 -85 118 -174 138 -198
l37 -43 79 165 c169 353 338 532 676 717 l140 77 7 -26 c3 -15 16 -65 27 -112
13 -51 47 -138 85 -215 84 -171 187 -298 381 -475 133 -121 147 -131 163 -117
56 49 270 132 434 168 120 26 352 36 473 20 221 -29 378 -86 800 -289 721
-347 1134 -477 1770 -558 167 -21 700 -30 891 -15 744 59 1413 316 1957 750
153 122 362 315 457 423 170 193 406 442 461 488 138 115 248 167 369 177 95
7 161 -13 226 -70 58 -51 79 -107 71 -196 -10 -123 -75 -214 -296 -416 -77
-70 -141 -132 -141 -136 0 -25 189 -20 335 8 205 39 350 118 490 264 128 134
194 285 195 446 1 234 -118 420 -336 525 -97 47 -200 67 -339 67 -131 1 -218
-13 -329 -50 -303 -101 -515 -256 -866 -634 -342 -368 -521 -530 -776 -701
-359 -240 -760 -393 -1239 -473 -436 -74 -906 -66 -1330 20 -574 117 -1020
291 -1685 658 -140 77 -279 151 -307 163 -29 13 -53 25 -53 28 0 16 266 156
428 225 186 78 541 189 725 225 31 6 57 16 57 21 0 20 -34 77 -100 164 -98
131 -216 299 -245 349 -18 31 -22 46 -14 51 28 18 268 23 854 18 659 -6 826
-1 1211 37 260 25 354 39 724 101 372 63 671 123 965 193 306 73 551 127 770
171 99 19 188 38 199 41 51 16 -290 289 -536 428 -177 100 -432 224 -509 247
-38 12 -69 25 -69 29 0 19 90 83 179 129 365 186 914 290 1381 261 254 -16
542 -71 745 -140 344 -119 703 -317 990 -545 237 -189 528 -513 699 -779 226
-351 378 -724 416 -1016 19 -147 19 -150 35 -143 22 8 109 120 154 198 21 36
41 63 43 58 2 -4 5 -26 7 -48 1 -22 9 -104 17 -182 26 -260 18 -642 -21 -948
-30 -230 -117 -523 -206 -695 -68 -130 -210 -330 -294 -416 l-70 -71 104 -7
c164 -10 278 -7 401 9 150 19 179 27 245 64 30 17 57 31 59 31 8 0 -31 -105
-63 -172 -82 -172 -315 -450 -516 -616 -124 -102 -332 -235 -495 -317 -225
-113 -541 -205 -874 -256 -148 -22 -471 -26 -634 -8 -218 24 -489 95 -757 200
-118 46 -294 141 -376 205 -100 77 -232 219 -325 349 -49 68 -92 125 -95 125
-11 0 -37 -119 -58 -268 -23 -159 -27 -335 -10 -461 6 -45 10 -84 8 -86 -6 -5
-171 106 -250 170 -110 88 -298 279 -366 371 -137 186 -241 459 -260 678 -3
42 -10 76 -14 76 -14 0 -96 -109 -129 -171 -37 -69 -87 -219 -106 -317 -9 -47
-14 -138 -14 -247 0 -213 17 -310 95 -551 30 -92 55 -172 55 -176 0 -14 -17
-9 -182 56 -256 100 -607 263 -818 380 -379 211 -688 321 -1022 366 -83 11
-157 20 -166 20 -9 0 29 -42 83 -92 154 -145 290 -306 272 -324 -3 -3 -142 2
-308 12 -260 15 -333 16 -533 5 -352 -18 -529 -39 -805 -96 -313 -66 -708
-204 -1006 -352 -183 -92 -254 -138 -381 -249 -141 -122 -134 -114 -83 -102
95 22 350 -12 514 -69 125 -43 295 -115 295 -124 0 -3 -35 -19 -77 -34 -203
-72 -633 -328 -873 -520 -190 -153 -268 -195 -470 -258 -259 -80 -504 -127
-780 -148 -329 -25 -773 19 -926 92 -34 16 -46 30 -64 71 -20 47 -22 63 -17
197 3 106 10 168 26 226 25 92 128 308 197 410 131 195 340 399 540 528 161
104 386 194 509 204 39 3 75 10 82 15 7 5 33 49 59 96 87 163 193 284 345 395
212 155 477 259 791 311 217 36 342 46 593 46 336 0 553 -25 994 -111 112 -22
206 -38 208 -35 13 13 -23 69 -75 118 -50 48 -113 94 -307 230 -254 177 -639
337 -1090 453 -339 87 -556 115 -890 115 -357 0 -647 -39 -936 -125 -589 -176
-1090 -580 -1345 -1087 -51 -102 -81 -184 -115 -319 -48 -195 -59 -266 -68
-446 -17 -367 16 -659 108 -946 51 -159 75 -246 69 -253 -10 -9 -242 114 -343
181 -198 132 -350 272 -505 465 -280 346 -427 756 -447 1240 -7 176 7 349 50
605 29 175 31 209 31 430 1 225 -1 248 -27 375 -88 420 -275 818 -537 1140
-91 111 -127 147 -155 152 -40 6 -305 -376 -441 -637 -213 -409 -394 -1019
-394 -1326 0 -96 -10 -85 -82 96 -101 252 -157 473 -195 770 -25 199 -25 704
1 890 50 365 108 585 238 905 229 566 631 1102 1180 1572 177 152 354 299 457
378 726 563 998 832 1211 1197 167 285 260 709 221 1008 -53 406 -294 758
-636 929 -240 120 -452 152 -698 105 -260 -49 -446 -146 -622 -323 -145 -146
-225 -293 -271 -494 -33 -146 -33 -275 0 -405 74 -289 272 -500 536 -568 176
-45 306 4 367 140 23 52 24 55 6 72 -10 10 -63 40 -118 67 -131 65 -206 122
-266 202 -64 85 -90 160 -96 281 -6 110 12 185 73 295 37 68 143 174 217 217
295 173 700 92 901 -182 52 -70 113 -194 143 -291 53 -169 30 -441 -54 -645
-115 -280 -282 -500 -588 -774 -149 -134 -299 -259 -453 -379 -104 -81 -274
-219 -531 -431 -163 -134 -439 -391 -566 -527 -231 -248 -544 -687 -689 -966
-72 -137 -176 -380 -229 -533 -69 -201 -144 -534 -181 -805 -60 -437 -47 -916
35 -1340 118 -608 367 -1227 689 -1710 220 -330 343 -483 575 -716 240 -241
363 -337 737 -575 555 -354 1236 -611 1873 -708 234 -35 376 -45 635 -45 278
1 537 24 750 68 61 13 112 20 114 17 5 -9 -149 -288 -267 -486 -118 -196 -215
-330 -329 -450 -101 -107 -185 -170 -318 -239 -125 -65 -223 -98 -373 -127
-98 -19 -133 -21 -277 -16 -91 4 -196 13 -235 21 -116 24 -248 57 -268 68 -10
5 -21 7 -24 4 -3 -2 19 -47 47 -98 174 -307 356 -503 654 -701 147 -97 370
-207 490 -242 173 -49 414 -89 619 -102 96 -6 97 -6 97 -32 0 -63 22 -276 40
-386 21 -131 70 -314 119 -440 17 -44 31 -83 31 -88 0 -26 -323 49 -470 108
-58 24 -150 64 -204 89 -55 25 -100 45 -101 44 -6 -7 37 -193 61 -264 73 -216
253 -523 448 -764 361 -446 928 -801 1555 -974 181 -50 390 -86 502 -86 l57 0
129 -113 c290 -254 512 -401 888 -590 512 -256 859 -381 1365 -491 346 -75
583 -108 955 -131 483 -30 1018 -13 1495 46 583 73 1359 272 1845 474 152 64
590 270 700 330 33 18 83 45 110 60 169 92 319 185 492 305 83 58 218 150 299
205 81 55 240 169 353 253 113 85 207 149 209 143 6 -18 -55 -121 -204 -346
-76 -115 -140 -212 -142 -215 -1 -3 40 -4 90 -2 292 9 662 102 978 244 152 69
192 89 375 191 303 169 637 429 910 708 340 347 519 574 776 984 324 516 594
1174 738 1800 96 419 128 653 140 1050 8 252 14 276 73 343 39 45 184 264 193
292 10 31 18 24 42 -33 12 -28 44 -104 72 -167 187 -428 245 -971 161 -1495
-24 -149 -53 -253 -90 -328 -19 -39 -24 -57 -15 -55 34 8 287 270 388 402 169
222 388 617 485 876 267 712 359 1398 287 2160 -47 498 -155 1149 -279 1681
-42 178 -53 239 -43 239 2 0 46 -23 98 -51 280 -152 576 -395 790 -649 140
-165 352 -521 436 -732 25 -62 49 -117 53 -122 18 -19 22 53 17 361 -3 270 -8
348 -30 513 -53 396 -116 641 -274 1065 -159 429 -357 774 -743 1295 -296 399
-315 432 -537 948 -7 16 46 10 232 -25 279 -53 594 -184 940 -391 196 -117
359 -243 554 -428 l104 -99 -7 44 c-18 113 -164 497 -263 694 -134 265 -421
690 -642 952 -254 300 -561 603 -831 821 -295 238 -683 488 -1020 658 -172 87
-350 187 -350 197 0 11 23 17 165 39 469 72 960 40 1440 -94 274 -77 501 -161
718 -266 59 -29 110 -50 113 -47 6 6 -87 144 -174 257 -167 216 -647 656 -944
865 -449 315 -1043 612 -1571 784 -163 54 -569 156 -737 186 -135 25 -170 34
-170 47 0 7 22 33 49 58 120 113 499 244 864 299 232 35 377 44 606 38 266 -7
425 -26 699 -83 68 -15 126 -23 130 -19 22 21 -284 272 -538 442 -256 171
-583 324 -1042 487 -611 217 -1534 301 -2317 210 -123 -14 -190 -25 -429 -68
-40 -7 -75 -10 -77 -6 -17 27 220 280 365 391 462 353 958 574 1627 724 94 22
170 42 167 46 -2 4 -41 25 -86 47 -230 111 -621 194 -1123 237 -224 19 -726
19 -950 0 -460 -39 -923 -115 -1240 -201 -244 -67 -914 -300 -1143 -398 -74
-32 -136 -55 -139 -53 -4 5 94 124 232 280 328 371 403 473 524 716 56 110 88
196 125 332 21 77 66 279 66 295 0 2 -13 10 -30 19 -29 15 -30 15 -30 -6 0
-54 -232 -303 -425 -455 -196 -155 -439 -298 -663 -389 -120 -49 -554 -195
-580 -195 -12 0 -14 10 -8 63 31 298 32 780 1 1032 -58 481 -184 975 -350
1380 -100 246 -224 515 -237 515 -4 0 -8 -14 -8 -31z m-2239 -731 c-6 -419
-125 -789 -362 -1124 -155 -219 -491 -539 -858 -817 -304 -232 -473 -369 -603
-490 -334 -311 -550 -613 -753 -1052 -155 -336 -240 -481 -360 -617 -38 -43
-72 -78 -75 -78 -8 0 -5 64 11 265 28 351 97 608 257 955 55 121 120 232 237
410 136 207 213 304 399 502 177 189 317 313 509 452 347 251 423 308 577 431
349 280 597 541 799 843 104 156 142 240 208 465 12 42 16 -2 14 -145z m2444
-1380 c-3 -35 -7 -112 -9 -173 -12 -270 -76 -545 -197 -852 -70 -179 -139
-311 -244 -468 -130 -194 -205 -285 -390 -470 -367 -369 -720 -622 -1250 -894
-60 -31 -115 -41 -115 -20 0 7 10 9 27 4 26 -6 27 -6 10 13 -16 18 -16 19 5
18 18 -1 24 6 29 34 12 70 41 151 55 157 8 3 14 11 14 18 0 7 12 23 28 34 15
12 19 18 10 15 -28 -10 -21 12 13 40 18 15 27 31 23 37 -4 8 -3 9 4 5 7 -4 20
-2 29 4 17 11 17 11 -1 6 -16 -6 -17 -4 -6 9 7 9 19 14 26 11 8 -3 13 -2 11 2
-1 4 0 7 3 7 10 1 49 39 45 43 -3 3 -11 -1 -20 -8 -8 -7 -15 -10 -15 -6 0 3 0
8 0 11 0 3 2 5 5 5 3 0 19 7 35 15 17 9 34 14 38 11 4 -2 8 4 8 14 0 16 -3 17
-16 6 -19 -17 -40 -28 -40 -23 0 8 71 59 85 61 8 1 18 6 22 11 5 4 1 5 -7 0
-27 -15 -6 2 180 142 212 159 294 232 450 398 l55 58 -81 -56 c-121 -84 -367
-207 -554 -277 -444 -166 -644 -255 -829 -366 -331 -198 -589 -470 -793 -839
-315 -567 -363 -650 -420 -717 -50 -61 -29 -64 59 -9 78 50 160 80 618 229
437 143 548 175 963 282 829 212 1145 321 1582 546 272 141 538 323 575 394
21 40 39 39 31 -1 -10 -50 -70 -161 -180 -332 -177 -276 -411 -539 -651 -729
-246 -194 -405 -283 -839 -470 -344 -147 -713 -258 -1026 -307 -187 -29 -610
-52 -655 -35 -16 6 5 19 242 153 43 24 120 66 172 94 85 47 171 111 160 120
-10 10 -174 -16 -289 -44 -529 -131 -867 -342 -1218 -764 -69 -83 -248 -353
-239 -361 1 -1 115 20 252 47 184 37 255 55 271 70 23 21 54 25 54 7 0 -17
-47 -108 -107 -209 -103 -174 -278 -307 -558 -426 -245 -104 -378 -123 -960
-133 l-440 -7 -84 -27 c-107 -35 -178 -69 -266 -126 l-70 -45 60 -2 c116 -5
259 -25 456 -63 110 -22 252 -47 317 -56 114 -16 176 -33 123 -34 -55 0 -151
-22 -144 -33 4 -6 0 -8 -10 -4 -9 3 -18 -1 -21 -10 -5 -11 -2 -14 9 -9 9 3 13
2 10 -4 -3 -6 -15 -10 -26 -10 -10 0 -19 -6 -19 -12 0 -16 -97 -56 -280 -114
-391 -125 -519 -192 -685 -359 -90 -90 -155 -174 -210 -268 -26 -46 -28 -47
-46 -31 -18 16 -19 16 -19 -7 0 -13 -7 -33 -15 -43 -8 -10 -12 -23 -9 -27 3
-5 -3 -6 -12 -2 -14 5 -16 3 -11 -11 4 -10 3 -15 -3 -11 -6 3 -10 -4 -11 -17
0 -13 -3 -17 -6 -11 -3 10 -8 9 -19 -2 -9 -8 -13 -19 -9 -24 3 -5 1 -12 -5
-16 -5 -3 -10 -1 -10 4 0 6 -7 11 -15 11 -8 0 -14 -3 -13 -7 2 -11 -35 -73
-44 -73 -5 0 -8 -4 -8 -9 0 -19 -62 -102 -96 -129 -19 -15 -34 -30 -34 -34 0
-3 -14 -21 -32 -38 -26 -27 -35 -30 -50 -21 -10 6 -21 11 -25 11 -5 0 0 -5 10
-11 9 -5 17 -14 17 -19 0 -12 -63 -75 -72 -72 -5 1 -8 -7 -8 -17 0 -11 -9 -23
-20 -26 -11 -3 -20 -12 -20 -19 0 -6 -39 -32 -86 -56 -47 -25 -88 -48 -91 -52
-2 -5 -15 -8 -28 -8 -13 0 -26 -4 -29 -9 -4 -5 -32 -17 -64 -26 -31 -9 -74
-25 -94 -36 -20 -10 -51 -19 -68 -19 -28 0 -30 3 -27 28 3 19 9 27 23 27 10 0
27 8 37 18 9 9 23 17 31 17 8 0 17 7 20 16 5 12 2 15 -11 9 -10 -3 -101 -38
-203 -76 -208 -78 -315 -141 -402 -239 -56 -62 -118 -167 -150 -253 l-21 -59
-34 54 c-132 211 -262 590 -278 813 -17 251 70 480 255 666 121 122 239 201
443 296 427 201 543 307 742 688 150 286 254 463 294 499 26 24 80 9 160 -45
84 -56 106 -88 143 -203 29 -93 30 -107 25 -205 -5 -94 -43 -280 -64 -313 -14
-23 45 25 149 122 298 279 424 377 588 458 l74 37 256 0 c252 0 256 1 329 28
305 112 570 390 601 630 14 109 11 285 -5 332 -14 39 -9 54 20 55 6 0 33 15
60 34 28 18 109 69 180 113 298 183 495 337 620 483 183 214 265 396 369 823
66 269 98 363 181 532 80 162 130 232 264 365 223 221 409 315 1071 540 586
199 927 366 1264 618 350 262 690 678 807 990 13 34 27 62 31 62 4 0 5 -28 3
-62z m-2434 -718 c-13 -11 -28 -20 -35 -20 -6 0 3 9 19 20 38 25 47 25 16 0z
m-3225 -856 c-24 -60 -52 -127 -61 -149 -49 -114 -125 -365 -176 -585 -6 -25
-19 -63 -30 -86 -10 -22 -19 -45 -19 -50 0 -10 -38 -129 -64 -200 -23 -62 -75
-150 -114 -192 -14 -15 -45 -72 -39 -72 2 0 22 17 45 38 40 37 76 50 87 31 3
-5 0 -6 -8 -3 -8 3 -17 -2 -21 -11 -3 -9 -2 -13 4 -10 6 3 10 2 10 -2 0 -17
-178 -185 -292 -275 -240 -190 -472 -405 -625 -580 -222 -253 -341 -502 -399
-838 -27 -156 -103 -360 -134 -360 -16 0 -63 66 -91 125 -74 158 -53 405 49
578 46 78 118 164 272 322 234 240 285 334 350 645 66 311 150 492 356 766
126 168 209 259 554 609 158 160 308 318 334 353 27 35 50 61 52 59 3 -3 -15
-53 -40 -113z m7445 -205 c-83 -209 -160 -340 -308 -524 -127 -157 -294 -309
-478 -434 -57 -39 -106 -71 -109 -71 -4 0 -25 -12 -48 -26 -68 -43 -249 -135
-259 -132 -6 2 31 46 81 98 59 62 89 101 86 112 -4 17 63 103 125 161 24 22
28 31 19 42 -9 11 -4 19 27 40 21 14 65 48 98 76 33 28 83 62 110 75 l50 24
-70 -5 c-38 -2 -122 -7 -185 -10 -182 -10 -419 -43 -463 -65 -21 -11 -40 -20
-42 -20 -12 0 -4 124 10 149 38 74 189 171 383 246 108 41 407 139 633 205
208 62 266 83 321 120 23 16 44 25 46 21 2 -5 -10 -42 -27 -82z m719 -850
c154 -15 275 -36 455 -81 256 -63 587 -181 608 -216 4 -6 -16 -13 -50 -17 -31
-4 -173 -40 -316 -81 -242 -69 -443 -114 -667 -151 -130 -21 -631 -29 -810
-14 -133 12 -243 30 -255 43 -4 3 24 26 62 50 37 25 93 67 123 95 74 67 177
125 282 160 49 15 88 30 88 33 0 3 -34 30 -75 60 -41 30 -74 59 -72 65 6 18
159 56 257 64 102 9 204 6 370 -10z m-4717 -274 c4 -8 3 -16 -1 -19 -4 -3 -9
4 -9 15 -2 23 3 25 10 4z m6065 -506 c434 -48 868 -237 1327 -578 72 -54 171
-131 220 -173 166 -140 525 -508 525 -539 0 -11 -42 -8 -275 16 -71 8 -161 17
-200 20 -78 7 -638 72 -955 110 -113 14 -254 36 -315 50 -60 13 -181 39 -267
57 -87 18 -157 38 -155 43 6 19 161 73 272 96 61 12 114 26 119 30 24 21 -112
221 -290 429 -55 63 -127 149 -161 191 -34 42 -105 117 -158 167 l-97 92 156
0 c86 0 200 -5 254 -11z m-2348 -140 c0 -35 -366 -409 -550 -563 -206 -173
-249 -204 -427 -313 -501 -306 -989 -463 -1631 -528 -540 -55 -1223 55 -1693
272 -46 22 -117 52 -157 67 -40 16 -72 30 -70 32 2 1 229 8 503 13 594 13 618
15 1310 116 695 102 1130 204 1658 389 360 126 680 284 952 470 81 55 105 66
105 45z m1072 -129 c54 -11 140 -36 191 -54 137 -50 394 -167 542 -249 72 -39
148 -81 169 -92 61 -32 56 -42 -26 -50 -40 -3 -111 -12 -158 -18 -118 -17
-591 -16 -700 1 -175 27 -593 142 -623 171 -10 10 120 110 197 150 33 17 84
39 113 47 29 8 53 20 53 26 0 6 -3 8 -6 5 -4 -3 -14 -2 -24 3 -16 9 -18 35 -4
79 6 18 137 9 276 -19z m-802 -745 c76 -15 137 -24 156 -23 12 1 39 -3 60 -9
38 -11 142 -32 176 -36 9 -1 15 -4 12 -8 -2 -4 17 -12 42 -18 121 -31 303
-152 441 -294 171 -176 259 -311 339 -520 40 -104 98 -316 90 -324 -3 -4 -14
1 -23 10 -22 20 -93 51 -203 89 -108 37 -528 154 -640 178 l-85 18 88 1 c77 1
87 3 87 19 0 47 -40 128 -126 258 -177 267 -332 460 -475 590 -43 38 -77 72
-78 75 -1 7 97 3 139 -6z m-7304 -85 c110 -63 179 -181 172 -295 -10 -150
-144 -275 -294 -275 -96 0 -144 19 -204 79 -73 73 -94 131 -88 241 4 67 9 85
37 129 36 55 111 116 169 137 21 7 64 13 97 13 48 1 70 -5 111 -29z m2560
-574 c176 -87 346 -168 379 -180 119 -45 161 -59 225 -73 36 -8 72 -18 80 -23
8 -4 40 -13 70 -20 30 -7 60 -16 65 -20 6 -5 48 -18 95 -30 47 -12 99 -25 115
-30 17 -5 89 -23 160 -40 72 -17 146 -35 165 -39 116 -30 307 -38 390 -17 14
3 9 0 -10 -8 -41 -17 -31 -19 24 -6 22 5 47 5 55 0 11 -6 9 -8 -9 -7 -14 0
-63 -11 -110 -25 -47 -15 -110 -34 -140 -42 -30 -9 -39 -14 -20 -11 78 12 5
-14 -135 -48 -372 -89 -632 -105 -1400 -83 -176 5 -346 6 -377 2 -51 -7 -70
-16 -154 -78 -52 -39 -92 -74 -87 -78 8 -8 133 -58 263 -106 153 -55 420 -97
700 -110 85 -4 164 -11 175 -15 l20 -9 -20 2 c-11 1 -42 -9 -70 -21 -27 -13
-64 -25 -81 -26 -35 -4 -74 -21 -74 -33 0 -5 12 -13 28 -19 l27 -12 -30 5
c-24 5 -27 3 -15 -6 12 -9 9 -10 -15 -6 -21 5 -26 4 -15 -3 12 -8 10 -12 -10
-19 -14 -5 -51 -19 -82 -30 -61 -23 -187 -57 -271 -73 -158 -30 -284 -39 -542
-39 -368 0 -573 24 -770 92 -49 17 -118 41 -153 53 l-63 21 138 65 c435 202
699 406 891 687 98 143 148 257 191 427 16 65 41 212 41 243 0 4 9 -7 19 -24
15 -25 76 -59 337 -188z m6494 39 c226 -114 503 -375 652 -615 162 -260 196
-559 107 -946 -33 -148 -55 -214 -71 -214 -18 0 -173 353 -373 850 -170 421
-247 594 -397 888 -32 62 -58 115 -58 118 0 3 19 -8 43 -24 23 -16 67 -42 97
-57z m865 -89 c22 -8 119 -37 215 -66 96 -29 189 -58 205 -65 28 -12 73 -28
85 -30 17 -3 117 -39 125 -45 6 -4 28 -13 50 -20 144 -45 476 -263 609 -399
27 -27 53 -48 58 -44 23 14 -16 171 -76 306 -53 121 -74 153 -118 191 l-43 36
101 0 c165 0 280 -48 483 -200 245 -184 426 -373 702 -730 195 -252 380 -581
503 -891 46 -119 109 -320 101 -327 -2 -3 -21 9 -42 26 -38 30 -92 61 -473
275 -221 123 -363 208 -572 340 -73 46 -185 112 -248 147 -318 176 -732 458
-987 672 -45 37 -153 139 -240 226 -155 154 -259 280 -408 497 -38 55 -74 103
-79 107 -17 12 5 9 49 -6z m-5758 -512 c-3 -3 -12 -4 -19 -1 -8 3 -5 6 6 6 11
1 17 -2 13 -5z m-3341 -1038 c98 -30 253 -73 344 -96 91 -22 181 -44 200 -50
19 -5 71 -16 115 -25 92 -18 174 -45 192 -62 7 -6 18 -13 25 -15 10 -4 10 -10
1 -29 -7 -13 -15 -61 -18 -105 l-7 -82 52 -11 c28 -6 63 -12 78 -12 15 -1 5
-5 -23 -9 -74 -12 -438 -11 -605 1 -80 5 -278 23 -440 40 -846 86 -1155 92
-1298 22 -32 -15 -61 -29 -67 -31 -5 -3 4 10 20 28 151 162 628 384 995 463
180 39 225 37 436 -27z m9722 -150 c85 -44 280 -180 360 -251 231 -208 352
-415 412 -710 27 -135 36 -154 45 -100 9 53 31 165 50 245 34 148 67 302 87
410 26 145 28 152 38 120 96 -302 111 -375 117 -570 10 -318 -45 -664 -165
-1035 -25 -75 -162 -420 -179 -449 -3 -4 -25 27 -48 70 -72 136 -96 175 -382
629 -66 105 -164 258 -218 340 -260 397 -562 892 -550 903 3 3 43 -14 165 -72
81 -38 244 -140 360 -224 39 -29 74 -52 75 -50 6 5 -31 178 -64 298 -48 181
-109 360 -141 417 -17 29 -25 53 -20 53 6 0 32 -11 58 -24z m-11860 -286 c-15
-24 -19 -21 -11 8 3 12 9 19 14 16 5 -3 3 -14 -3 -24z m-30 -64 c-13 -19 -24
-33 -26 -31 -5 4 37 65 44 65 2 0 -6 -15 -18 -34z m-56 -108 c-7 -7 -12 -8
-12 -2 0 14 12 26 19 19 2 -3 -1 -11 -7 -17z m-29 -43 c-3 -9 -8 -14 -10 -11
-3 3 -2 9 2 15 9 16 15 13 8 -4z m-40 -72 c-5 -11 -8 -12 -13 -2 -5 7 -6 19
-3 26 5 11 8 12 13 2 5 -7 6 -19 3 -26z m-13 -28 c0 -2 -9 -9 -20 -15 -12 -6
-20 -7 -20 -1 0 5 8 12 18 14 9 3 18 5 20 6 1 0 2 -1 2 -4z m10691 -27 c45
-72 149 -299 185 -403 20 -60 41 -114 45 -118 15 -18 29 102 28 240 -1 79 1
147 5 150 9 9 34 -16 68 -66 17 -25 55 -75 83 -111 107 -133 121 -199 86 -410
-31 -190 -75 -292 -255 -585 -90 -148 -91 -149 -93 -110 -1 22 -7 90 -13 150
-5 61 -17 205 -25 320 -26 354 -60 591 -116 820 -40 162 -38 155 -28 155 5 0
19 -15 30 -32z m-9231 -11 c77 -22 114 -37 107 -43 -3 -4 -28 -10 -54 -15 -58
-11 -314 -94 -363 -117 -21 -10 -36 -26 -38 -38 -3 -18 3 -21 34 -22 21 -1 40
-5 43 -9 14 -20 60 -40 102 -46 25 -3 58 -11 73 -17 23 -8 26 -13 16 -25 -6
-8 -9 -18 -6 -23 6 -10 -39 -46 -69 -54 -63 -19 -201 -70 -212 -79 -6 -6 -17
-8 -23 -4 -6 4 -9 1 -8 -6 2 -7 -4 -13 -12 -14 -46 -1 -343 -224 -499 -374
-46 -44 -89 -78 -94 -74 -6 3 -7 1 -3 -6 5 -7 -17 -38 -54 -79 -34 -37 -87
-101 -118 -142 -31 -41 -58 -77 -62 -80 -3 -3 -22 -31 -43 -62 -20 -32 -39
-58 -41 -58 -1 0 2 16 8 35 6 19 14 35 18 35 4 0 5 7 2 15 -4 8 1 17 10 21 9
3 16 11 16 16 0 6 18 33 41 61 23 30 38 58 36 68 -3 11 0 16 8 13 9 -4 11 3 8
20 -6 31 -22 33 -56 6 -14 -11 -35 -20 -46 -20 -12 0 -31 -9 -42 -19 -24 -22
-72 -22 -94 0 -9 9 -15 36 -16 72 -1 31 -6 57 -10 57 -12 0 -11 67 1 75 6 3
10 28 10 56 0 27 4 49 8 49 5 0 14 25 21 55 7 30 16 53 20 51 4 -3 8 12 9 32
6 102 32 142 207 318 226 227 396 321 673 375 121 23 403 21 492 -4z m12370
-567 c174 -141 291 -291 416 -535 34 -67 73 -155 85 -196 l23 -74 8 57 c8 62
35 123 80 180 16 20 38 63 49 95 25 75 34 82 48 41 23 -73 113 -497 132 -621
61 -420 46 -824 -46 -1223 -26 -116 -35 -144 -45 -144 -5 0 -12 17 -15 38 -13
73 -50 169 -220 562 -35 80 -113 264 -175 410 -62 146 -129 303 -150 350 -78
178 -189 447 -209 506 -37 111 -62 246 -81 439 -11 105 -20 194 -20 198 0 12
15 2 120 -83z m-2257 -957 c68 -162 88 -247 88 -381 l0 -113 27 33 c15 18 29
35 32 38 3 3 18 24 33 47 26 38 67 64 67 42 0 -5 6 -8 12 -6 8 1 13 -11 14
-33 1 -19 7 -54 13 -78 11 -38 14 -42 28 -31 8 8 19 22 23 34 15 35 11 -55 -5
-168 -29 -189 -74 -337 -150 -489 -104 -207 -218 -354 -494 -638 l-102 -105 6
65 c4 36 11 99 16 140 28 221 41 448 46 835 l6 420 57 85 c32 47 82 130 110
185 77 146 121 225 125 225 2 0 23 -48 48 -107z m354 -390 c-2 -16 -4 -3 -4
27 0 30 2 43 4 28 2 -16 2 -40 0 -55z m1640 -205 c-2 -24 -4 -5 -4 42 0 47 2
66 4 43 2 -24 2 -62 0 -85z m-1050 -68 c66 -91 164 -226 218 -300 156 -216
264 -469 306 -720 12 -71 13 -73 23 -45 13 37 122 251 164 323 17 28 30 52 27
52 -2 0 13 30 34 68 21 37 44 84 50 105 7 20 17 37 23 37 6 0 8 7 4 15 -3 8
-2 15 3 15 4 0 16 17 27 37 10 21 25 44 32 52 7 7 11 20 8 28 -3 8 -2 12 2 9
4 -3 13 4 20 14 10 16 9 18 -6 14 -12 -4 -11 0 6 14 12 12 22 24 21 29 -4 16
38 93 46 85 5 -4 5 -2 1 5 -4 7 -2 20 3 30 5 10 14 47 19 83 l9 65 2 -63 c1
-70 -12 -206 -35 -357 -21 -140 -111 -595 -135 -685 -76 -277 -340 -976 -475
-1260 -73 -151 -275 -493 -285 -482 -6 6 -95 335 -153 568 -37 146 -82 421
-103 629 -22 219 -24 790 -5 1245 7 162 13 357 13 433 1 76 5 135 9 130 3 -4
61 -82 127 -173z m1453 -1135 c47 -64 106 -153 131 -199 88 -160 171 -398 187
-541 l8 -70 23 45 c13 25 54 88 91 140 37 52 73 106 81 120 l13 25 7 -40 c9
-48 -12 -249 -41 -399 -25 -129 -85 -329 -142 -469 -40 -101 -186 -401 -213
-441 -14 -19 -15 -18 -15 21 0 119 -137 825 -208 1073 -56 197 -57 222 -25
570 12 129 20 245 17 258 -4 12 -5 22 -2 22 2 0 42 -52 88 -115z m-2319 -525
c-5 -52 -24 -177 -42 -277 -18 -101 -30 -185 -27 -188 3 -3 27 6 53 20 75 39
195 34 195 -10 0 -23 -86 -174 -123 -214 -105 -115 -366 -259 -542 -300 -59
-13 -277 -42 -282 -37 -2 2 14 18 36 35 22 18 69 67 104 109 121 146 198 272
325 532 68 140 165 324 215 408 l92 153 3 -68 c2 -37 -1 -110 -7 -163z m-826
-273 c-34 -82 -123 -233 -180 -305 -126 -159 -364 -323 -550 -378 -79 -23
-193 -21 -318 5 -139 29 -144 34 -76 65 266 118 457 250 741 513 42 40 89 78
105 87 42 21 158 44 230 45 l62 1 -14 -33z m-3648 -567 c83 -50 279 -127 443
-175 159 -46 431 -100 880 -175 195 -33 421 -73 502 -90 130 -27 257 -44 383
-53 40 -2 39 -3 -75 -60 -121 -62 -267 -115 -387 -141 -58 -13 -354 -56 -385
-56 -5 0 -8 -3 -8 -8 0 -20 189 -75 305 -87 63 -7 115 -22 115 -35 0 -28 -95
-68 -214 -90 -86 -16 -353 -8 -476 14 -258 47 -569 214 -778 419 -74 73 -179
205 -246 309 -34 53 -136 250 -136 263 0 10 11 5 77 -35z m-3422 -55 c266 -31
529 -95 758 -186 380 -150 671 -402 855 -739 42 -77 136 -330 122 -330 -4 0
-20 18 -35 40 -38 54 -116 102 -415 252 -140 70 -293 150 -340 178 -47 27 -88
50 -92 50 -19 0 -3 -18 54 -60 33 -25 127 -119 208 -210 203 -226 418 -430
570 -540 38 -29 70 -53 70 -55 0 -4 0 -4 -210 59 -325 98 -409 131 -660 256
-156 78 -175 89 -450 260 -113 70 -268 164 -345 210 -165 98 -672 358 -830
426 -242 103 -516 195 -698 233 -35 8 -57 17 -54 24 13 39 485 128 797 151
118 8 561 -4 695 -19z m2330 -639 c61 -29 229 -101 375 -158 146 -58 371 -147
500 -198 129 -51 339 -144 465 -205 127 -62 248 -118 270 -125 43 -13 62 -26
53 -35 -14 -14 -263 -56 -363 -62 -170 -9 -298 14 -500 92 -41 16 163 -107
240 -144 111 -54 194 -80 295 -91 47 -5 88 -10 93 -10 4 0 7 -5 7 -11 0 -16
-114 -64 -304 -128 -207 -70 -242 -76 -321 -56 -76 20 -258 116 -400 210 -134
89 -295 244 -383 369 -90 128 -212 381 -272 564 -27 84 -50 155 -50 157 0 2
42 -23 93 -56 50 -33 142 -84 202 -113z m4381 29 c53 -14 168 -32 258 -40 88
-9 167 -17 174 -18 7 -1 -55 -56 -138 -122 -202 -160 -200 -158 -175 -150 11
3 54 13 95 21 41 8 113 25 160 38 47 14 137 39 202 56 147 38 372 115 418 142
19 12 45 30 58 41 39 35 24 5 -37 -77 -125 -167 -353 -387 -466 -450 -29 -16
-24 -17 120 -12 83 3 132 1 110 -3 -44 -8 -90 -30 -65 -31 12 0 10 -4 -4 -15
-17 -13 -18 -15 -3 -15 12 0 17 -8 17 -26 0 -15 8 -32 17 -39 12 -9 17 -24 15
-53 -3 -32 2 -44 26 -69 25 -24 37 -29 71 -27 24 1 51 10 63 20 20 19 21 19
14 -3 -6 -18 -4 -22 8 -17 9 3 16 12 16 19 0 7 7 16 16 19 8 3 12 2 9 -4 -11
-19 14 -10 34 11 11 12 25 18 31 14 8 -5 4 -15 -15 -31 -22 -19 -31 -21 -47
-13 -18 10 -18 9 -8 -11 7 -13 8 -20 2 -16 -6 3 -14 2 -17 -4 -10 -17 -73 -53
-160 -92 -418 -188 -1045 -183 -1582 11 -244 88 -453 192 -453 225 0 6 24 30
53 54 29 23 80 70 113 104 69 74 318 276 419 340 149 97 364 204 475 239 43
13 77 10 176 -16z m1801 -149 c23 -34 66 -101 96 -151 57 -93 127 -193 198
-280 51 -63 75 -109 104 -199 56 -173 56 -365 0 -476 -15 -29 -25 -54 -22 -56
4 -5 76 78 127 147 79 107 226 277 236 274 7 -2 25 11 40 28 l29 32 -27 -24
c-39 -34 -34 -14 8 34 21 25 32 32 28 20 -5 -18 -4 -18 6 -2 6 9 8 23 4 30 -6
9 -4 9 8 -1 12 -10 18 -10 23 -1 4 6 1 15 -6 20 -14 9 -14 9 23 13 7 0 18 12
25 26 7 14 13 21 13 17 0 -4 15 9 33 30 17 21 42 49 55 63 12 14 22 28 22 33
0 4 30 49 66 100 97 136 97 136 106 131 9 -6 1 -112 -10 -128 -3 -6 -7 -19 -8
-31 -8 -77 -94 -366 -158 -533 -166 -432 -452 -862 -797 -1198 -350 -341 -729
-612 -1155 -828 -95 -47 -175 -86 -178 -86 -11 0 14 41 74 120 75 98 222 320
292 440 175 298 304 604 403 955 177 628 293 1257 278 1515 -3 55 -1 62 9 46
7 -11 32 -47 55 -80z m-9805 -192 c171 -27 352 -92 548 -197 86 -45 106 -68
73 -82 -44 -18 -166 -35 -253 -35 -223 0 -435 -33 -473 -73 -12 -13 -43 -30
-69 -38 -26 -7 -44 -16 -40 -20 8 -8 182 -32 345 -48 135 -13 151 -21 144 -68
-19 -112 -201 -194 -817 -368 -206 -58 -504 -155 -635 -207 -143 -57 -446
-205 -583 -286 -232 -138 -450 -311 -651 -518 -78 -79 -141 -137 -141 -129 0
51 152 397 273 619 287 531 604 871 1077 1153 398 237 620 308 974 312 75 0
170 -6 228 -15z m8901 -221 c-13 -2 -33 -2 -45 0 -13 2 -3 4 22 4 25 0 35 -2
23 -4z m197 -208 c-7 -8 -17 -15 -22 -15 -11 0 14 29 26 30 5 0 3 -7 -4 -15z
m-7677 -80 c20 -3 37 -10 37 -15 0 -5 -19 -19 -41 -31 -23 -11 -37 -24 -33
-29 10 -9 89 -27 305 -70 86 -16 259 -61 385 -99 126 -38 250 -72 276 -76 26
-4 55 -13 65 -20 16 -12 12 -14 -27 -19 -25 -3 -106 -8 -180 -11 -74 -3 -218
-15 -320 -25 -526 -56 -891 -149 -1212 -311 -165 -83 -166 -82 -80 84 155 299
335 492 548 588 94 43 165 52 277 34z m4932 -202 c39 -10 70 -22 69 -28 0 -5
-25 -26 -55 -47 -30 -20 -79 -62 -108 -94 -47 -51 -51 -59 -35 -65 195 -73
562 -166 727 -185 65 -8 64 -15 -4 -54 -319 -184 -593 -231 -1004 -174 -186
26 -304 52 -460 100 -210 65 -196 58 -156 80 66 37 242 150 358 230 151 103
329 210 401 241 48 20 68 23 127 19 39 -3 102 -13 140 -23z m-2560 -503 c174
-13 227 -34 518 -203 86 -51 178 -102 202 -115 25 -13 45 -27 45 -32 0 -13
-52 -48 -83 -55 -15 -4 -24 -12 -21 -17 5 -7 34 -8 81 -4 85 7 93 -4 27 -41
-83 -47 -275 -99 -459 -123 -123 -17 -542 -8 -651 14 -193 37 -539 163 -793
289 -107 53 -121 62 -100 68 452 137 726 201 934 218 141 12 165 12 300 1z
m-3846 -261 c-79 -203 -183 -528 -173 -538 2 -3 17 5 32 17 125 98 364 170
692 208 247 28 605 8 830 -47 107 -26 318 -90 390 -119 93 -36 313 -149 345
-176 20 -17 24 -24 11 -19 -93 29 -454 38 -686 16 -546 -50 -1053 -263 -1396
-584 -204 -191 -412 -572 -499 -918 -27 -106 -65 -346 -65 -413 0 -52 -7 -43
-69 81 -174 348 -242 621 -244 968 -3 443 115 798 392 1185 95 132 194 231
343 342 64 48 120 93 123 99 4 5 9 9 11 7 2 -3 -15 -51 -37 -109z m8024 59
c-30 -33 -133 -179 -133 -189 0 -4 19 -1 43 7 108 38 398 95 558 110 113 10
112 -3 -14 -130 -158 -159 -262 -234 -464 -335 -190 -95 -511 -192 -828 -250
-93 -18 -195 -38 -225 -46 -30 -8 -56 -12 -58 -10 -5 4 14 27 113 142 33 39
86 101 118 140 157 192 447 439 601 513 55 26 224 67 285 69 l24 1 -20 -22z
m-9425 -468 c-27 -17 -51 -30 -55 -30 -5 -1 -21 -12 -38 -25 -27 -22 -28 -24
-7 -20 12 2 28 7 35 10 6 4 4 0 -6 -8 -10 -8 -29 -14 -43 -12 -13 1 -30 -5
-36 -13 -10 -13 -10 -14 0 -8 17 10 15 -5 -5 -34 l-16 -25 26 24 c15 13 24 28
21 32 -3 5 4 9 15 9 28 0 27 -29 -2 -60 -12 -14 -30 -38 -40 -53 l-19 -29 24
7 c12 4 30 13 38 20 8 6 23 15 33 18 10 4 15 11 12 17 -3 5 0 7 7 5 8 -3 23 4
35 15 12 11 27 20 33 20 5 0 10 5 10 11 0 7 12 9 33 5 43 -9 48 -9 76 0 23 7
24 6 17 -36 -4 -24 -11 -49 -15 -55 -5 -5 -11 -23 -15 -40 -4 -16 -14 -43 -21
-60 -32 -73 -70 -271 -53 -281 4 -3 8 -15 8 -27 1 -21 1 -21 12 -3 8 15 8 21
0 24 -7 2 -11 18 -11 35 1 22 3 26 6 12 3 -11 10 -23 15 -26 12 -8 -1 -79 -14
-79 -6 0 -8 -6 -5 -14 6 -15 -31 -169 -62 -261 -20 -57 -21 -58 -17 -19 2 23
11 57 20 76 17 35 21 60 17 113 l-3 30 -9 -30 c-5 -16 -7 -38 -5 -48 3 -13 0
-17 -11 -13 -11 5 -13 0 -9 -22 3 -15 1 -34 -4 -42 -8 -11 -9 -7 -4 15 4 17 3
27 -2 22 -12 -11 -12 -146 0 -150 5 -2 4 -12 -2 -22 -6 -11 -35 -81 -66 -155
-30 -74 -86 -207 -124 -295 -145 -332 -190 -540 -207 -940 -3 -82 -10 -153
-14 -158 -12 -12 -157 298 -200 429 -93 284 -125 507 -118 814 6 235 19 322
78 493 41 120 153 342 220 437 101 143 271 299 422 387 83 48 115 57 45 13z
m6992 -88 c80 -38 184 -61 310 -68 125 -7 180 -14 180 -23 0 -4 -15 -14 -32
-23 -18 -8 -53 -32 -77 -52 -49 -41 -292 -194 -333 -210 -34 -13 -37 -28 -5
-25 12 1 57 -1 100 -6 64 -6 77 -10 77 -25 0 -21 -15 -26 -144 -41 -130 -15
-742 -6 -966 15 -91 9 -191 16 -222 16 -33 0 -58 4 -58 10 0 23 264 182 490
295 350 175 525 211 680 137z m-6766 -38 c-30 -67 -66 -175 -85 -250 -6 -28
-17 -51 -24 -51 -8 0 -6 20 7 71 28 108 70 226 81 226 5 0 6 7 3 16 -3 8 -2
13 3 10 4 -3 14 6 21 19 25 46 21 19 -6 -41z m-122 -382 c-9 -34 -20 -62 -24
-62 -11 0 -10 28 1 34 5 3 12 23 16 43 7 39 14 57 21 51 1 -2 -4 -32 -14 -66z
m4643 -317 c61 -8 126 -15 146 -15 20 0 38 -3 41 -6 3 -3 -14 -37 -37 -76 -54
-87 -130 -266 -156 -366 -32 -124 -42 -244 -35 -412 4 -85 9 -179 12 -208 l6
-52 27 42 c51 80 183 210 276 271 238 157 487 236 840 267 143 13 815 26 815
16 0 -4 -7 -17 -15 -30 -18 -28 -125 -266 -125 -279 0 -5 12 -7 28 -3 15 3
146 17 292 31 481 46 709 80 1040 156 324 74 674 177 853 249 39 16 73 27 76
24 14 -14 -45 -87 -156 -194 -158 -153 -241 -219 -332 -265 -45 -22 -70 -40
-64 -46 13 -13 280 -57 426 -70 171 -16 443 -6 585 22 62 12 116 19 119 15 4
-3 4 -7 2 -9 -95 -74 -385 -250 -527 -321 -109 -54 -305 -130 -512 -199 -535
-178 -1011 -256 -1547 -257 -357 0 -611 23 -938 85 -313 59 -613 169 -973 356
l-173 90 6 -38 c17 -97 68 -272 110 -375 104 -253 223 -427 469 -682 53 -55
92 -104 88 -108 -4 -4 -132 -11 -283 -15 -373 -8 -521 8 -939 102 -252 57
-420 109 -633 194 -269 108 -579 315 -802 536 -197 195 -304 342 -415 570 -47
97 -110 285 -110 329 0 53 52 126 166 232 63 59 116 105 118 103 1 -2 10 -34
20 -70 10 -36 41 -116 70 -176 161 -332 378 -536 725 -677 102 -42 132 -51
127 -38 -3 9 -19 56 -35 103 -34 96 -71 302 -71 395 0 149 60 356 133 464 129
188 340 303 635 345 118 17 460 11 627 -10z m7408 -62 c-10 -27 -146 -244
-231 -368 -165 -242 -395 -504 -597 -682 -304 -267 -794 -534 -1300 -709 -171
-60 -423 -126 -540 -144 -38 -5 -89 -13 -112 -16 -56 -9 -55 4 5 46 111 79
357 337 549 575 71 89 116 153 295 423 47 71 74 90 173 123 72 24 345 159 449
223 98 59 266 138 283 132 17 -7 14 -11 -107 -166 -37 -47 -86 -114 -110 -150
-24 -36 -59 -84 -78 -108 -19 -23 -33 -44 -30 -47 2 -2 55 22 118 54 102 51
163 84 415 221 57 31 230 145 380 251 87 62 180 136 325 262 62 53 114 97 116
97 2 0 0 -8 -3 -17z m-11803 -1609 c67 -90 166 -190 295 -299 187 -158 293
-234 612 -436 117 -74 305 -172 370 -194 74 -23 80 -40 12 -31 -177 22 -322
64 -455 132 -103 52 -268 168 -312 219 -18 19 -32 34 -32 33 0 -2 5 -19 10
-38 6 -19 27 -93 46 -164 33 -125 87 -264 173 -450 23 -49 40 -91 37 -93 -9
-9 -223 167 -297 243 -41 44 -112 124 -155 180 -203 254 -285 450 -334 792
-21 151 -22 162 -16 162 2 0 23 -25 46 -56z m1742 -317 c130 -112 179 -147
288 -210 188 -107 286 -155 362 -177 86 -25 90 -28 107 -82 7 -21 24 -47 38
-57 13 -11 22 -25 18 -31 -3 -5 -1 -10 4 -10 6 0 11 -7 11 -15 0 -28 22 -61
50 -73 15 -7 30 -21 33 -31 12 -46 -204 -66 -377 -36 -170 30 -280 87 -402
210 -156 157 -251 352 -280 574 l-7 54 31 -18 c17 -11 73 -55 124 -98z m4156
-128 c126 -26 242 -43 482 -71 177 -21 239 -23 665 -23 635 0 964 24 1225 91
74 19 140 33 146 32 7 -2 -64 -75 -157 -163 -116 -109 -189 -170 -232 -193
-34 -18 -51 -31 -37 -28 80 16 123 17 240 6 134 -13 159 -25 101 -47 -23 -8
-28 -16 -25 -30 4 -15 20 -23 60 -32 41 -10 58 -19 66 -36 6 -13 19 -26 29
-28 13 -3 17 -11 13 -21 -7 -17 11 -22 21 -6 4 6 11 8 16 4 6 -3 5 -12 -3 -22
-12 -14 -10 -14 10 -3 12 6 22 16 22 21 0 6 5 10 11 10 6 0 9 -7 6 -15 -5 -12
-1 -12 21 -4 48 18 9 -7 -48 -31 -90 -38 -256 -79 -415 -102 -132 -20 -188
-23 -465 -23 -279 1 -331 3 -450 23 -368 62 -608 144 -912 312 -184 102 -290
175 -431 298 -104 91 -125 119 -81 108 14 -4 69 -16 122 -27z m-2505 -538 c14
-6 209 -28 434 -51 462 -46 551 -59 678 -95 102 -29 234 -80 284 -109 30 -17
32 -21 17 -32 -9 -6 -78 -19 -154 -29 -75 -9 -141 -18 -147 -19 -5 -2 58 -6
140 -10 207 -9 329 -22 357 -38 12 -7 25 -14 27 -15 1 -1 -5 -10 -15 -21 -33
-35 -116 -71 -223 -97 -198 -49 -267 -58 -461 -58 -171 -1 -193 1 -284 26
-131 36 -224 81 -342 163 -141 98 -221 181 -307 317 -34 52 -44 77 -33 77 3 0
16 -4 29 -9z m-1990 -462 c245 -79 774 -139 1232 -139 l280 -1 82 -167 c45
-92 113 -210 150 -262 88 -123 224 -264 291 -302 29 -17 51 -32 49 -34 -2 -2
-37 0 -78 6 -41 5 -139 14 -219 19 -380 26 -704 118 -1095 311 -245 121 -451
268 -665 474 -119 115 -136 135 -104 121 11 -4 45 -16 77 -26z m4392 -152
c172 -114 361 -185 505 -189 30 -1 46 -3 34 -5 -15 -3 -20 -12 -21 -38 -1 -40
19 -49 56 -26 l24 16 -18 -30 c-69 -111 -205 -218 -350 -275 -87 -35 -274 -83
-385 -100 -122 -18 -365 -28 -507 -19 -181 11 -427 54 -548 95 -143 48 -250
91 -250 101 0 4 50 11 110 15 209 13 460 75 705 175 162 66 252 113 430 227
74 47 142 86 150 86 8 0 38 -15 65 -33z m635 -186 c0 -5 -7 -15 -17 -22 -13
-11 -17 -11 -20 -1 -3 6 -12 12 -21 13 -14 0 -13 2 3 9 27 11 55 12 55 1z"/>
<path d="M10830 18060 c-9 -6 -10 -10 -3 -10 6 0 15 5 18 10 8 12 4 12 -15 0z"/>
<path d="M5586 14104 c-40 -127 -81 -181 -186 -246 -88 -54 -250 -130 -265
-124 -20 7 -28 61 -24 159 l4 85 -25 -10 c-89 -33 -193 -137 -216 -215 -16
-54 -18 -225 -4 -328 11 -78 73 -215 97 -215 27 0 138 62 210 116 73 56 168
156 240 254 86 117 146 271 179 466 19 113 15 137 -10 58z"/>
<path d="M6116 13875 c-18 -27 -20 -35 -8 -35 4 0 13 14 19 30 14 36 11 38
-11 5z"/>
<path d="M5288 13173 c6 -2 18 -2 25 0 6 3 1 5 -13 5 -14 0 -19 -2 -12 -5z"/>
<path d="M6326 12468 c3 -4 11 -5 19 -1 21 7 19 12 -4 10 -11 0 -18 -5 -15 -9z"/>
<path d="M6220 12385 c0 -8 5 -17 10 -20 6 -3 10 2 10 12 0 11 3 14 8 7 5 -9
10 -9 18 1 9 9 6 12 -17 13 -18 0 -29 -4 -29 -13z"/>
<path d="M12767 7379 c7 -7 15 -10 18 -7 3 3 -2 9 -12 12 -14 6 -15 5 -6 -5z"/>
<path d="M6745 5600 c-3 -5 -1 -10 4 -10 6 0 11 5 11 10 0 6 -2 10 -4 10 -3 0
-8 -4 -11 -10z"/>
<path d="M6973 5180 c0 -30 2 -43 4 -27 2 15 2 39 0 55 -2 15 -4 2 -4 -28z"/>
<path d="M6881 4928 c0 -9 -4 -25 -7 -35 -5 -14 -4 -15 5 -7 7 7 11 22 8 35
-2 13 -5 16 -6 7z"/>
<path d="M10375 20131 c-3 -5 -2 -12 3 -15 5 -3 9 1 9 9 0 17 -3 19 -12 6z"/>
<path d="M10345 20111 c-3 -5 -2 -12 3 -15 5 -3 9 1 9 9 0 17 -3 19 -12 6z"/>
<path d="M10450 20102 c0 -5 7 -13 16 -16 10 -4 14 -1 12 6 -5 15 -28 23 -28
10z"/>
<path d="M4855 19661 c-82 -30 -117 -51 -175 -110 -84 -83 -114 -152 -118
-272 -6 -143 28 -244 116 -341 112 -124 336 -161 499 -82 29 14 81 53 115 87
173 174 182 426 20 599 -55 59 -111 94 -193 119 -79 25 -196 25 -264 0z"/>
<path d="M10827 12742 c-102 -54 -147 -126 -148 -236 -1 -63 10 -93 52 -140
98 -112 226 -135 326 -60 43 33 110 136 118 182 13 80 -47 189 -132 239 -62
36 -162 43 -216 15z"/>
<path d="M14528 11349 c-6 -4 7 -16 29 -27 59 -30 138 -123 179 -210 48 -101
56 -189 26 -289 -53 -173 -180 -282 -353 -304 -156 -19 -285 26 -400 140 -109
108 -163 243 -164 404 0 53 -3 97 -7 97 -18 0 -162 -126 -196 -172 -194 -257
-208 -625 -36 -888 125 -191 285 -299 543 -367 80 -21 119 -26 231 -26 119 0
149 3 250 30 112 30 215 75 352 154 164 96 305 280 358 471 67 239 7 514 -156
711 -101 123 -243 213 -405 256 -74 20 -231 32 -251 20z"/>
<path d="M5504 8366 c-62 -20 -100 -53 -134 -117 -56 -105 -53 -198 9 -276 75
-95 208 -137 302 -96 88 39 149 110 168 195 22 95 -45 235 -133 280 -51 26
-155 33 -212 14z"/>
</g>
</svg>
