<?xml version="1.0" encoding="UTF-8" standalone="no"?>
<!-- Created with Inkscape (http://www.inkscape.org/) -->

<svg
   width="1354.6666mm"
   height="1354.6666mm"
   viewBox="0 0 1354.6666 1354.6666"
   version="1.1"
   id="svg1"
   xml:space="preserve"
   inkscape:version="1.3.2 (091e20e, 2023-11-25)"
   sodipodi:docname="logo.svg"
   xmlns:inkscape="http://www.inkscape.org/namespaces/inkscape"
   xmlns:sodipodi="http://sodipodi.sourceforge.net/DTD/sodipodi-0.dtd"
   xmlns:xlink="http://www.w3.org/1999/xlink"
   xmlns="http://www.w3.org/2000/svg"
   xmlns:svg="http://www.w3.org/2000/svg"><sodipodi:namedview
     id="namedview1"
     pagecolor="#ffffff"
     bordercolor="#000000"
     borderopacity="0.25"
     inkscape:showpageshadow="2"
     inkscape:pageopacity="0.0"
     inkscape:pagecheckerboard="0"
     inkscape:deskcolor="#d1d1d1"
     inkscape:document-units="mm"
     inkscape:zoom="0.11039397"
     inkscape:cx="2889.6506"
     inkscape:cy="2350.6719"
     inkscape:window-width="1376"
     inkscape:window-height="656"
     inkscape:window-x="0"
     inkscape:window-y="23"
     inkscape:window-maximized="0"
     inkscape:current-layer="layer1" /><defs
     id="defs1"><linearGradient
       id="linearGradient16"
       inkscape:collect="always"><stop
         style="stop-color:#000000;stop-opacity:0.5;"
         offset="0"
         id="stop16" /><stop
         style="stop-color:#000000;stop-opacity:1;"
         offset="1"
         id="stop17" /></linearGradient><linearGradient
       id="linearGradient13"
       inkscape:collect="always"><stop
         style="stop-color:#000000;stop-opacity:1;"
         offset="0"
         id="stop14" /><stop
         style="stop-color:#000000;stop-opacity:0;"
         offset="1"
         id="stop15" /></linearGradient><linearGradient
       id="linearGradient5"
       inkscape:collect="always"><stop
         style="stop-color:#000000;stop-opacity:1;"
         offset="0"
         id="stop5" /><stop
         style="stop-color:#000000;stop-opacity:0;"
         offset="1"
         id="stop6" /></linearGradient><linearGradient
       id="linearGradient3"
       inkscape:collect="always"><stop
         style="stop-color:#010101;stop-opacity:1;"
         offset="0"
         id="stop3" /><stop
         style="stop-color:#010101;stop-opacity:0;"
         offset="1"
         id="stop4" /></linearGradient><inkscape:path-effect
       effect="bspline"
       id="path-effect59120"
       is_visible="true"
       lpeversion="1.3"
       weight="33.333333"
       steps="2"
       helper_size="0"
       apply_no_weight="true"
       apply_with_weight="true"
       only_selected="false"
       uniform="false" /><linearGradient
       inkscape:collect="always"
       xlink:href="#linearGradient3"
       id="linearGradient4"
       x1="-332.24637"
       y1="-50.737083"
       x2="-260.0351"
       y2="30.860651"
       gradientUnits="userSpaceOnUse" /><linearGradient
       inkscape:collect="always"
       xlink:href="#linearGradient5"
       id="linearGradient6"
       x1="-319.74835"
       y1="35.969627"
       x2="-141.54634"
       y2="-101.6772"
       gradientUnits="userSpaceOnUse" /><linearGradient
       inkscape:collect="always"
       xlink:href="#linearGradient13"
       id="linearGradient15"
       x1="-218.48735"
       y1="-378.5316"
       x2="169.18814"
       y2="-378.5316"
       gradientUnits="userSpaceOnUse" /><linearGradient
       inkscape:collect="always"
       xlink:href="#linearGradient16"
       id="linearGradient17"
       x1="-188.92128"
       y1="-57.687664"
       x2="52.715191"
       y2="-55.479824"
       gradientUnits="userSpaceOnUse" /></defs><g
     inkscape:label="Layer 1"
     inkscape:groupmode="layer"
     id="layer1"
     transform="translate(580.76038,593.32812)"><path
       style="display:inline;fill:#000000;fill-opacity:1;fill-rule:evenodd;stroke:none;stroke-width:0.264583;opacity:1;stroke-opacity:1"
       d="m -318.56613,90.43884 c -65.0545,-90.5793407 -46.55235,-118.469428 -42.07368,-139.595462 8.84839,-19.659011 29.25332,-35.223898 57.39853,-48.203617 10.22351,-3.869621 21.25356,-18.493051 33.43604,-48.482251 -28.49253,-22.2071 -25.30015,-41.9291 -21.17615,-61.57804 1.61419,-10.86766 10.7594,-25.13642 32.60013,-45.13865 4.92357,-18.11119 8.11424,-36.22237 17.27529,-54.33356 13.57842,-25.59274 81.59954,-89.13794 83.59009,-96.68587 58.49966,-67.21345 71.02719,-135.83389 69.658412,-178.0469 25.47126,35.08297 31.805108,99.65342 29.535166,113.96116 43.51866,-33.88786 71.631915,-61.40134 90.834567,-88.85055 31.657842,52.28017 1.624794,100.00455 -20.340255,124.23702 -44.618656,42.67776 -83.132407,45.26901 -107.292017,105.44705 -8.948403,22.15182 -26.973853,42.42748 -43.170153,48.35873 -26.04057,12.64293 -54.78035,20.38284 -76.06698,47.64635 -24.81083,33.38732 -16.93722,45.50964 -13.37442,61.85667 36.93031,-10.29878 26.8234,-28.93495 45.97455,-49.31816 5.76605,-6.90859 11.4538,-13.83284 33.15741,-17.55392 126.256946,-10.92689 57.849628,-75.3053 120.877404,-129.13619 112.947992,-67.15305 171.242536,-55.93001 191.192276,-219.71313 37.5563,72.67606 38.66324,129.50453 33.8829,174.37085 43.2694,-11.9766 78.93689,-30.66077 100.79867,-61.52646 -2.79096,20.73611 -0.957,38.05859 -54.98109,96.60963 128.79253,-51.97957 210.09428,-47.33552 273.59638,-21.4688 -90.60709,19.90624 -102.84094,44.01105 -125.67107,67.5482 157.29508,-21.58499 214.19637,27.25585 259.15554,62.52324 -57.7315,-9.76381 -107.89602,-9.07798 -139.24439,17.59206 75.56388,18.75822 150.72175,39.20296 210.23722,124.62381 -38.06618,-14.42368 -69.25431,-33.66199 -143.47447,-22.77788 C 694.92589,-87.470019 748.59868,-8.6563304 760.77826,49.950656 723.3389,13.560153 687.84478,0.51254514 652.9106,-5.8158798 660.41298,12.297591 665.68497,22.976437 669.40493,28.481849 764.6685,145.208 744.98286,225.67901 746.11664,239.76633 729.21626,196.76546 701.25262,166.9022 664.16863,147.86936 c 24.68618,102.91319 28.04799,179.45152 7.33081,226.20792 -10.84233,35.3911 -28.47073,65.45028 -56.02835,87.70794 18.21578,-48.52067 6.31107,-86.28401 -8.37807,-123.05292 -3.59898,6.58835 -9.31329,14.58693 -16.49433,23.56332 3.56117,110.60692 -58.91298,223.97391 -146.61624,278.04724 -38.15236,23.73202 -63.10798,26.56921 -87.1843,28.01417 7.29069,-11.43257 15.81749,-22.86515 20.94517,-34.29772 -89.71744,70.27379 -158.2634,93.51024 -218.09166,100.79866 -40.76158,8.95107 -149.065072,19.77167 -241.654991,-31.15595 -20.321899,-11.14259 -40.634409,-22.29694 -56.290169,-39.27221 -95.16058,-7.66708 -150.0877,-79.82237 -154.7325,-122.52929 22.33978,10.18765 32.36301,11.13789 45.81758,14.66163 -10.1599,-21.2974 -9.04193,-37.76142 -11.51985,-55.76654 -43.22903,-1.59819 -83.0732,-15.04339 -112.0567,-66.50094 22.97573,2.91481 40.46383,15.237 79.06805,-8.63988 14.57435,-11.48032 29.1487,-32.76031 43.72305,-63.35917 -39.78634,4.90741 -74.78721,14.36947 -156.04157,-17.54158 -55.49707,-22.21325 -97.65676,-58.92365 -125.67107,-111.00945 -30.43929,-53.72093 -32.84942,-86.62234 -35.6068,-121.48203 -0.85548,-40.779033 4.59182,-83.396378 32.20321,-132.47825 32.03822,-48.154598 59.04278,-71.114838 112.58033,-112.84215 18.86933,-18.18443 41.19501,-27.91998 50.00661,-70.68997 -0.0828,-8.38088 4.42471,-6.04844 -6.54536,-36.39225 -5.72549,-5.14902 -8.35099,-10.29805 -18.32704,-15.44707 -19.58029,-5.05093 -29.76938,-1.75412 -38.74857,2.61815 -7.18229,7.55654 -15.97954,14.42096 -15.18526,25.39603 -0.0554,14.93228 4.78733,23.56707 13.09074,27.75236 l 14.92344,8.63989 c 0.71257,1.47401 1.70917,2.75868 -1.04726,6.54536 -2.65938,3.97808 -5.83337,6.41231 -9.68715,6.80719 -4.79994,-0.0421 -9.59987,1.26916 -14.39981,-2.09452 -9.19277,-3.41302 -16.64619,-9.72495 -22.25425,-19.11248 -6.70183,-11.33766 -10.28461,-24.09306 -3.92722,-41.36672 3.03191,-10.94771 9.49,-19.32579 17.27977,-26.7051 10.55986,-8.83102 21.11972,-13.51976 31.67958,-15.18526 9.37897,-2.24486 18.25783,-5.05234 36.91588,3.14178 14.6809,4.91359 22.6698,13.65119 29.06143,23.30151 6.57796,7.51116 12.04582,17.79755 13.87619,37.17769 1.00394,24.69849 -5.33647,34.70828 -9.94896,48.17391 -8.52424,17.24925 -19.04805,30.49937 -31.15596,40.58128 -42.61843,37.397858 -40.31223,32.023327 -55.76653,46.079393 -19.93915,15.010711 -35.02332,30.021421 -46.60302,45.032132 -18.22115,22.61521 -31.67994,43.801711 -37.96314,62.835534 -8.75631,24.963315 -14.3908,49.536401 -13.61436,73.308122 0.74018,30.909949 5.28293,58.862339 16.75614,81.424379 6.11136,-47.77631 19.0985,-82.025754 49.22117,-118.602069 18.50609,12.646357 37.06097,54.789169 41.10491,75.664459 5.46038,19.99638 -0.31482,49.8239 -3.92722,77.75897 3.4986,41.88386 12.21973,82.84609 75.66445,114.15122 -32.93974,-110.67274 22.03588,-146.4222 50.79206,-165.46691 109.16393,-53.37595 213.320438,16.56908 220.971625,34.03592 -86.947575,-17.23966 -150.004485,-8.75091 -174.892235,40.84309 -28.74306,2.60592 -90.40702,46.64161 -75.92627,95.03875 53.50079,19.20632 107.25441,-3.90565 117.293,-7.33081 20.05184,-14.20115 36.08623,-28.80404 67.28638,-41.89036 -21.55965,-10.37744 -35.91474,-11.49187 -49.22117,-11.25803 43.5747,-44.6431 136.117699,-51.6829 184.579383,-45.55576 -9.887469,-13.26062 -8.097851,-12.202 -22.254252,-24.8724 29.971491,3.52212 55.470293,13.75328 78.282602,28.01417 21.118425,10.40174 35.056209,15.05896 50.530242,20.94518 -22.732145,-53.33008 0.651287,-82.79728 5.759924,-85.3516 2.691295,31.42365 20.734901,56.45051 52.101131,75.92627 -2.4282,-13.31368 -2.74649,-28.13444 3.14178,-47.38846 62.3007,87.42574 208.49845,54.93248 240.86954,-28.53781 -18.61473,7.03349 -33.51717,6.64243 -47.38846,4.18904 14.3054,-12.26334 27.22152,-28.49607 33.25047,-64.40643 3.14802,-23.473969 4.75241,-47.462486 0.78544,-73.308119 -4.10176,6.897264 -8.20353,12.647435 -12.30529,15.970698 C 343.7637,-79.98053 198.33644,-142.92761 104.93238,-83.574853 c 46.25392,20.349477 49.64173,25.59959 65.19187,40.843097 -150.799789,31.84973 -128.355657,32.9322055 -277.26179,32.203211 8.868702,13.8101862 16.026382,24.198327 22.516062,33.25047 C -145.62755,39.871483 -141.36497,43.034903 -155.83508,50.212471 -45.495328,117.44295 56.804965,126.01193 139.49193,52.830618 154.04149,38.490065 164.62741,23.1586 183.4768,9.8930037 204.76988,-7.8283659 240.67668,-16.333298 262.02122,7.0130417 281.38262,34.076053 257.16572,74.850611 207.82557,69.324946 264.08844,28.675685 215.57388,-3.525451 178.93513,50.937673 135.04633,99.821284 88.439591,122.75829 37.384183,127.44781 -33.440227,137.38664 -91.68632,116.77813 -145.88612,86.342903 c -10.99229,-0.246108 -38.3588,-19.32162 -83.25709,3.665406 -21.65718,-16.677186 -34.63562,-34.981638 -37.17769,-55.242907 -29.55189,12.246672 -42.8581,32.941092 -52.24523,55.673438 z"
       id="path59120"
       sodipodi:nodetypes="ccccccccccccccccccccccccccccccccccccccccccccccccccccccccccccccccccccccccccccccccccccccccccccccccccccccccccccccccccccc" /><path
       style="fill:#ffffff;fill-opacity:1;fill-rule:evenodd;stroke:#ffffff;stroke-width:0.264583;stroke-opacity:0.9587298"
       d="m -313.7232,37.795171 c -9.34063,9.302109 -70.98587,-91.709753 22.88889,-117.191174 16.37393,-10.845964 17.36597,-9.084059 31.1289,-30.823737 1.17479,-1.03356 17.08727,-38.03734 20.75261,-34.18075 13.91505,0.60454 22.22553,17.16517 13.12297,46.082997 59.30904,-60.715407 50.28591,-26.025957 89.7245,-42.420767 15.0103,-11.12588 32.58788,-19.31772 25.63556,-55.54373 24.130548,-15.33212 49.893632,-22.73478 68.666706,-64.08892 6.180535,-47.17076 22.324508,-90.29046 101.626719,-107.73043 40.762865,-19.48213 83.581955,-28.51182 115.054875,-95.21782 0.13844,29.50806 -0.0513,63.48787 -43.6415,113.52894 -19.23625,29.99432 -126.1212085,85.76177 -113.834137,74.46523 16.426938,-30.02365 75.103878,-59.91091 94.607457,-84.53634 -41.225516,31.17978 -39.228794,10.8425 -101.01635,52.18669 -23.287092,14.09789 -41.911021,60.61028 -58.595585,83.3156 37.749397,-17.70075 109.816296,-35.4015 166.326015,-53.10225 41.53113,-17.47199 49.86815,-26.03825 58.90077,-34.79113 -21.24536,68.48211 -119.648536,112.15556 -196.539363,110.17191 5.882682,-3.03352 15.8521829,-9.01862 36.317056,-22.58372 -58.926462,7.95691 -82.640243,37.92175 -103.152646,69.88745 24.55557,-4.60421 32.203218,-6.87629 33.265202,-8.24001 -14.416699,36.50418 -39.938439,47.39782 -122.379319,47.30373 -6.48811,0.54283 -14.17151,4.67154 -22.27853,10.07112 32.97046,2.09705 40.27901,5.41609 57.98521,8.240003 -18.62737,14.182247 -36.10426,9.889439 -62.86818,26.245939 -17.9013,13.624261 -27.37454,43.375824 -42.42076,60.731884 -17.03631,17.2076991 -32.82238,20.662799 -49.13484,29.908163 -6.71408,6.103707 -18.07104,19.171748 -20.14223,18.311122 z"
       id="path59121"
       sodipodi:nodetypes="cccccccccccccccccccccccccccc" /><path
       style="fill:#1a1a1a;fill-opacity:1;fill-rule:evenodd;stroke:#ffffff;stroke-width:0.264583;stroke-opacity:0.9587298"
       d="m -281.72116,-55.131478 c -3.46253,0.631564 -8.3849,3.291732 -14.78563,12.660189 -2.5293,25.550886 3.6701,30.142726 5.17496,32.6207962 32.28853,-11.3567622 37.43738,-45.2115582 38.2578,-55.7233132 -3.43335,10.023402 -5.83462,17.375453 -28.00027,25.135549 -2.07345,-3.442492 -1.72107,-9.480224 -0.64686,-14.693221 z"
       id="path59122"
       sodipodi:nodetypes="cccccc" /><path
       style="fill:#ffffff;fill-opacity:1;fill-rule:evenodd;stroke:#ffffff;stroke-width:0.264583;stroke-opacity:0.9587298"
       d="m -262.3472,-172.49849 c -24.88299,-29.05175 10.96731,-57.6061 28.15238,-77.66177 11.28654,-71.2522 53.03357,-85.64483 81.54485,-124.74418 -13.68467,30.09393 -10.2891,29.60854 -20.87161,78.63252 -15.79125,18.11702 -66.76254,54.2026 -75.7202,81.05947 -4.36847,14.23799 -5.57148,33.22418 -13.10542,42.71396 z"
       id="path59123"
       sodipodi:nodetypes="cccccc" /><path
       style="fill:#ffffff;fill-opacity:1;fill-rule:evenodd;stroke:#000000;stroke-width:0.264583"
       d="m -142.94225,-295.78654 c 1.4862,-148.62671 130.517736,-148.86462 175.22433,-253.37146 -0.345296,78.822 -43.337726,100.99462 -118.919555,162.6043 -33.860655,41.03601 -28.798825,59.26278 -56.304775,90.76716 z"
       id="path59124"
       sodipodi:nodetypes="cccc" /><path
       style="display:inline;fill:#ffffff;fill-opacity:1;fill-rule:evenodd;stroke:#ffffff;stroke-width:0.264583;stroke-opacity:0.9587298"
       d="m -228.21254,60.699964 c -6.17847,-9.048545 -18.60229,-25.639582 -4.14763,-45.883062 43.55627,-59.322596 91.3924,-34.997762 94.3584,-34.736325 -8.23805,1.622694 -15.10721,2.789095 -27.21877,5.702961 30.82959,5.151951 27.28208,9.5044346 29.81103,13.99823119 C -193.48469,-1.0820149 -223.5216,54.681114 -228.21254,60.699964 Z"
       id="path59125"
       sodipodi:nodetypes="cccccc" /><path
       style="fill:#ffffff;fill-opacity:1;fill-rule:evenodd;stroke:#ffffff;stroke-width:0.264583;stroke-opacity:0.9587298"
       d="m -184.78589,-42.455546 c 6.22875,-6.423379 41.07705,-30.147045 73.92019,-29.716651 42.279629,14.375979 90.674397,21.710283 160.098522,4.828964 -33.610529,19.348477 -71.807257,31.696967 -121.095398,27.116457 -35.777594,0.810074 -93.559374,-14.540968 -112.923314,-2.22877 z"
       id="path59126"
       sodipodi:nodetypes="ccccc" /><path
       style="fill:#ffffff;fill-opacity:1;fill-rule:evenodd;stroke:#ffffff;stroke-width:0.264583;stroke-opacity:0.9587298"
       d="m -92.292774,-92.602395 c 34.615363,-16.297475 67.469467,-33.776635 72.805818,-81.720825 50.520489,16.61887 97.618934,39.36891 167.156206,21.91605 -42.38575,31.23828 -104.075939,35.07672 -171.98517,30.08812 -4.496361,5.15433 -7.537138,7.39749 -10.400823,9.28646 28.3787518,15.115558 51.854045,9.39142 77.263306,11.88664 -64.410467,32.109347 -110.742006,17.721491 -134.839337,8.543555 z"
       id="path59127"
       sodipodi:nodetypes="ccccccc" /><path
       style="fill:#ffffff;fill-opacity:1;fill-rule:evenodd;stroke:#ffffff;stroke-width:0.264583;stroke-opacity:0.9587298"
       d="m -1.6569767,-192.52467 c 61.0940997,-0.1955 184.0259267,-6.15532 264.1068167,-60.17623 -17.67592,29.03277 -121.7022,127.89396 -264.1068167,60.17623 z"
       id="path59128"
       sodipodi:nodetypes="ccc" /><path
       style="fill:#ffffff;fill-opacity:1;fill-rule:evenodd;stroke:#ffffff;stroke-width:0.264583;stroke-opacity:0.9587298"
       d="m 260.59257,-276.10276 c 10.26922,-8.18767 20.28803,-16.87616 33.43124,-19.31585 l -9.28648,-7.80061 c 40.04987,-12.82071 91.91326,10.46129 100.29375,14.48686 -64.84803,22.07992 -101.47806,17.05319 -124.43851,12.6296 z"
       id="path59129"
       sodipodi:nodetypes="ccccc" /><path
       style="fill:#ffffff;fill-opacity:1;fill-rule:evenodd;stroke:#ffffff;stroke-width:0.264583;stroke-opacity:0.9587298"
       d="m 308.88212,-240.81425 0.74293,-5.57186 c 27.50966,-1.67491 55.55614,18.44158 72.06289,26.37353 -23.99776,5.56409 -59.61291,4.30247 -92.12164,-7.0577 1.62396,-6.18621 12.40822,-9.31898 19.31582,-13.74397 z"
       id="path59130"
       sodipodi:nodetypes="ccccc" /><path
       style="fill:#ffffff;fill-opacity:1;fill-rule:evenodd;stroke:#ffffff;stroke-width:0.264583;stroke-opacity:0.9587298"
       d="m 199.6734,-317.70611 c -9.75642,-19.07023 49.39188,-29.3441 81.34937,-43.08915 -22.28225,61.39751 -88.17247,88.49416 -85.06394,81.72083 7.20362,-15.69635 28.33129,-29.36062 43.83207,-44.57499 -13.3725,1.33226 -26.745,1.81594 -40.1175,5.94331 z"
       id="path59131"
       sodipodi:nodetypes="ccscc" /><path
       style="fill:#ffffff;fill-opacity:1;fill-rule:evenodd;stroke:#ffffff;stroke-width:0.264583;stroke-opacity:0.9587298"
       d="m 394.31754,-202.55405 c 4.62985,-4.12368 15.63156,-5.06143 23.77331,-7.42915 -9.8571,-21.50367 -26.91834,-34.36237 -41.23187,-50.51833 84.25039,-2.65674 123.65309,55.91584 144.86874,74.66312 -6.12373,1.41399 -93.30658,-5.28724 -127.41018,-16.71564 z"
       id="path59132"
       sodipodi:nodetypes="ccccc" /><path
       style="fill:#ffffff;fill-opacity:1;fill-rule:evenodd;stroke:#ffffff;stroke-width:0.264583;stroke-opacity:0.9587298"
       d="m 299.22422,-146.83531 11.5152,-0.7429 c -10.1877,-26.19221 -32.4408,-47.25756 -43.83207,-56.83313 33.35979,6.17681 71.70154,5.64525 88.77853,75.03459 -4.28815,-3.58377 -14.01367,-8.00405 -56.46166,-17.45856 z"
       id="path59133"
       sodipodi:nodetypes="ccccc" /><path
       style="fill:#ffffff;fill-opacity:1;fill-rule:evenodd;stroke:#ffffff;stroke-width:0.264583;stroke-opacity:0.9587298"
       d="m 186.67235,-140.89198 c 5.44806,-1.00065 10.89613,-2.24548 16.34419,-0.37144 28.42478,-12.66465 41.68063,-17.74484 61.29059,-26.00209 -18.90814,-2.37921 -50.6333,-12.0916 -77.63478,26.37353 z"
       id="path59134"
       sodipodi:nodetypes="cccc" /><path
       style="fill:#ffffff;fill-opacity:1;fill-rule:evenodd;stroke:#ffffff;stroke-width:0.264583;stroke-opacity:0.9587298"
       d="m 230.13297,-132.7199 c 26.76489,-1.34613 49.05035,5.21262 59.06188,33.431246 -15.82957,-11.915296 -33.4235,-23.477716 -59.06188,-33.431246 z"
       id="path59135"
       sodipodi:nodetypes="ccc" /><path
       style="fill:#ffffff;fill-opacity:1;fill-rule:evenodd;stroke:#ffffff;stroke-width:0.264583;stroke-opacity:0.9587298"
       d="m 337.85588,-94.088242 c 14.73772,-5.771111 24.38813,0.944832 28.23083,21.916045 -6.99727,-6.615918 -14.42632,-13.355202 -28.23083,-21.916045 z"
       id="path59136"
       sodipodi:nodetypes="ccc" /><path
       style="fill:#ffffff;fill-opacity:1;fill-rule:evenodd;stroke:#ffffff;stroke-width:0.264583;stroke-opacity:0.9587298"
       d="m 347.14233,-65.485938 c 4.4574,2.950825 11.58693,17.8059 11.14374,31.202498 -5.09569,-7.638605 -9.94437,-15.771245 -11.14374,-31.202498 z"
       id="path59137"
       sodipodi:nodetypes="ccc" /><path
       style="fill:#ffffff;fill-opacity:1;fill-rule:evenodd;stroke:#ffffff;stroke-width:0.264583;stroke-opacity:0.9587298"
       d="m 398.77502,59.695474 c 10.25041,-13.49937 20.61526,-26.80803 21.17313,-56.4616332 -1.98714,-5.7476336 -8.95866,-13.4890218 -14.85834,-20.8016738 -0.14619,8.3466206 0.21398,16.94642115 -1.48582,24.5162386 -5.44805,-15.4545307 -10.89611,-24.4431526 -16.34416,-35.2885366 8.36285,29.3452017 9.6967,76.384582 11.51519,88.035605 z"
       id="path59138"
       sodipodi:nodetypes="cccccc" /><path
       style="fill:#ffffff;fill-opacity:1;fill-rule:evenodd;stroke:#ffffff;stroke-width:0.264583;stroke-opacity:0.9587298"
       d="m 421.06252,-62.51427 c 16.94001,-29.678598 11.15923,-74.17203 -48.66103,-107.72291 24.33439,47.67824 39.83521,92.547658 48.66103,107.72291 z"
       id="path59139"
       sodipodi:nodetypes="ccc" /><path
       style="fill:#ffffff;fill-opacity:1;fill-rule:evenodd;stroke:#ffffff;stroke-width:0.264583;stroke-opacity:0.9587298"
       d="m 427.03194,-162.2198 c 25.5183,8.66642 48.95199,12.32976 82.74828,40.86334 -1.13554,-11.77323 -3.83713,-22.85045 -12.7698,-31.15829 49.31742,-2.18144 103.19701,91.178838 109.30946,125.654777 C 570.56378,-53.435015 467.55904,-92.124941 427.03194,-162.2198 Z"
       id="path59140"
       sodipodi:nodetypes="ccccc" /><path
       style="fill:#ffffff;fill-opacity:1;fill-rule:evenodd;stroke:#ffffff;stroke-width:0.264583;stroke-opacity:0.9587298"
       d="m 442.86649,-37.0758 c 13.91404,3.582261 23.65419,12.729719 35.24464,19.410098 -2.21288,-16.175352 -8.21324,-30.456968 -13.79138,-44.949692 17.50089,14.449023 41.51177,16.418718 51.58997,68.4461202 1.61167,-16.6555482 5.5091,-34.0730182 9.70504,-51.5899922 12.91613,36.7625944 11.93295,73.70176 -13.79138,121.568473 C 488.83771,38.180871 462.14851,0.55253567 442.86649,-37.0758 Z"
       id="path59141"
       sodipodi:nodetypes="ccccccc" /><path
       style="fill:#ffffff;fill-opacity:1;fill-rule:evenodd;stroke:#ffffff;stroke-width:0.264583;stroke-opacity:0.9587298"
       d="m 565.96732,5.3199216 c 21.97943,13.2050464 30.41247,31.1911714 37.79859,49.5468004 0.29857,-9.523679 7.6167,-13.455022 9.70505,-21.964041 20.10803,73.209829 8.13397,88.671889 3.57555,117.482119 C 599.58406,101.97038 566.11981,51.373894 565.96732,5.3199216 Z"
       id="path59142"
       sodipodi:nodetypes="ccccc" /><path
       style="fill:#ffffff;fill-opacity:1;fill-rule:evenodd;stroke:#ffffff;stroke-width:0.264583;stroke-opacity:0.9587298"
       d="m 487.30537,94.197696 c 16.92044,14.437914 20.81643,27.247774 31.15832,40.863364 6.02287,-20.37836 25.16117,-47.314437 37.79858,-71.000067 C 564.09551,170.42516 514.64988,254.39876 502.62914,270.42088 483.88258,216.79431 485.58072,155.50097 487.30537,94.197696 Z"
       id="path59143"
       sodipodi:nodetypes="ccccc" /><path
       style="fill:#ffffff;fill-opacity:1;fill-rule:evenodd;stroke:#ffffff;stroke-width:0.264583;stroke-opacity:0.9587298"
       d="m 438.26935,59.974662 c 6.30074,10.896891 9.00561,21.793782 9.19425,32.690673 6.49625,-11.556166 9.75703,-18.798363 13.79137,-27.071981 4.80647,74.653766 -29.00395,89.767906 -43.92808,107.266286 12.70215,-106.300127 -11.14201,-58.9423 20.94246,-112.884978 z"
       id="path59144"
       sodipodi:nodetypes="ccccc" /><path
       style="fill:#ffffff;fill-opacity:1;fill-rule:evenodd;stroke:#ffffff;stroke-width:0.264583;stroke-opacity:0.9587298"
       d="m 576.69395,163.6654 c -0.66975,14.35303 -1.68408,27.15545 -4.08633,33.71225 7.01208,26.20502 13.31045,52.7669 16.85613,80.70512 10.56269,-18.91729 24.15951,-47.76354 24.00721,-79.17273 -5.36359,5.2352 -9.66261,12.06726 -13.28058,19.92088 -0.7012,-24.33096 -12.68912,-39.25632 -23.49643,-55.16552 z"
       id="path59145"
       sodipodi:nodetypes="cccccc" /><path
       style="fill:#ffffff;fill-opacity:1;fill-rule:evenodd;stroke:#ffffff;stroke-width:0.264583;stroke-opacity:0.9587298"
       d="m 554.21911,300.04683 c -15.40739,24.86153 -33.01694,45.31874 -50.05761,66.91371 12.60854,-35.62941 -6.05599,-38.37756 -25.53959,-75.08639 -4.72251,88.30339 -35.39893,144.15332 -60.78424,180.30951 99.09344,-41.5011 124.49792,-110.96164 136.38144,-172.13683 z"
       id="path59146"
       sodipodi:nodetypes="ccccc" /><path
       style="fill:#ffffff;fill-opacity:1;fill-rule:evenodd;stroke:#ffffff;stroke-width:0.264583;stroke-opacity:0.9587298"
       d="m 304.44189,330.69434 c 15.99643,-16.51808 34.67351,-32.24772 65.38137,-44.43891 10.33655,6.59704 22.09019,4.69152 33.20145,6.6403 -12.08673,8.06322 -18.45936,13.00966 -20.94246,15.83454 20.32145,-5.21814 42.00162,-9.07755 58.23027,-18.38849 -3.20869,3.85023 -18.26071,25.64457 -33.20148,32.69068 19.63651,-0.63267 35.50835,-2.87876 49.03602,-6.1295 -27.47679,45.78732 -105.60016,48.11784 -151.70517,13.79138 z"
       id="path59147"
       sodipodi:nodetypes="cccccccc" /><path
       style="fill:#ffffff;fill-opacity:1;fill-rule:evenodd;stroke:#ffffff;stroke-width:0.264583;stroke-opacity:0.9587298"
       d="m 284.01021,351.6368 c -4.76739,-1.48943 -9.53477,-3.99942 -14.30216,-3.06475 -21.13976,8.39068 -33.57841,19.68173 -50.05761,29.62593 49.22503,19.71886 77.37217,11.33386 100.62599,-3.57556 -15.06952,-1.5347 -30.05288,-2.89707 -48.52522,-11.23741 4.82811,-6.14139 9.95677,-13.18446 12.259,-11.74821 z"
       id="path59148"
       sodipodi:nodetypes="cccccc" /><path
       style="fill:#ffffff;fill-opacity:1;fill-rule:evenodd;stroke:#ffffff;stroke-width:0.264583;stroke-opacity:0.9587298"
       d="m 375.95275,391.47855 c -17.72677,-1.51525 -39.0779,11.79641 -66.40295,49.54683 43.83922,-5.25159 79.61846,-19.20797 101.6476,-48.01444 -14.56466,2.77392 -29.63601,3.01434 -43.41731,9.70505 -0.24529,-4.33972 4.20627,-7.74006 8.17266,-11.23744 z"
       id="path59149"
       sodipodi:nodetypes="ccccc" /><path
       style="fill:#ffffff;fill-opacity:1;fill-rule:evenodd;stroke:#ffffff;stroke-width:0.264583;stroke-opacity:0.9587298"
       d="m 479.64349,488.01821 c -14.87449,11.97141 -36.60136,21.86869 -55.74371,30.42582 -17.02255,24.59149 -32.70251,46.08202 -54.07652,64.58147 98.10753,-15.39797 144.71434,-73.82432 166.00733,-114.41736 -25.96511,20.65326 -52.00125,41.17867 -82.23747,54.14393 5.51361,-7.21941 13.55873,-17.91966 26.05037,-34.73386 z"
       id="path59150"
       sodipodi:nodetypes="cccccc" /><path
       style="fill:#ffffff;fill-opacity:1;fill-rule:evenodd;stroke:#ffffff;stroke-width:0.264583;stroke-opacity:0.9587298"
       d="m 206.36987,517.13335 c 2.15665,-5.94031 3.55224,-11.62694 8.17266,-18.38851 -93.78112,-2.28998 -98.23475,17.75191 -114.928173,34.73386 -1.393858,-17.70909 -4.117899,-34.46805 12.259023,-64.87056 -42.112637,-6.43252 -114.7013809,-5.11795 -85.91902,75.41406 -18.9450602,-13.23774 -39.333682,-12.40075 -55.059555,-57.02557 -10.772834,8.1166 -15.069073,13.62905 -16.345323,17.87773 15.035508,95.30902 162.434768,110.86266 186.439018,100.62599 -20.72579,-17.43398 -35.33703,-39.96342 -40.35256,-70.48928 12.17772,16.05414 149.46974,73.34741 273.27365,-13.28058 -21.02225,2.27177 -43.67985,5.16174 -67.93532,-3.06475 14.21458,-4.55908 25.24554,-14.95478 34.22306,-29.11514 -33.7618,11.69749 -66.86922,23.54598 -133.82746,27.58275 z"
       id="path59151"
       sodipodi:nodetypes="ccccccccccccc" /><path
       style="fill:#ffffff;fill-opacity:1;fill-rule:evenodd;stroke:#ffffff;stroke-width:0.264583;stroke-opacity:0.9587298"
       d="m 180.31947,588.64422 c 35.8666,6.51173 66.42058,15.09871 156.30231,0.51078 -9.42177,8.29013 -19.44668,21.40538 -28.09356,23.49643 12.95502,-3.48293 38.37823,-0.73177 57.71948,-1.02158 -46.83568,42.86323 -151.52587,18.76444 -185.92823,-22.98563 z"
       id="path59152"
       sodipodi:nodetypes="ccccc" /><path
       style="fill:#ffffff;fill-opacity:1;fill-rule:evenodd;stroke:#ffffff;stroke-width:0.264583;stroke-opacity:0.9587298"
       d="m -61.795868,575.87443 c 17.58572,14.21126 35.188307,28.37614 56.1871012,33.20145 4.4953475,5.293 5.78471216,10.90067 7.6618834,15.32376 -57.8697516,11.48553 -63.4536176,-42.19032 -63.8489846,-48.52521 z"
       id="path59153"
       sodipodi:nodetypes="cccc" /><path
       style="fill:#ffffff;fill-opacity:1;fill-rule:evenodd;stroke:#ffffff;stroke-width:0.264583;stroke-opacity:0.9587298"
       d="m 42.405673,622.86726 c 28.863746,4.50799 64.186837,2.55663 85.302247,14.81296 -5.36562,4.12699 -15.53641,4.24968 -26.0504,4.08636 17.21155,0.37937 35.46575,0.49807 45.97128,2.55394 -56.875567,29.4319 -96.193016,1.97622 -105.223127,-21.45326 z"
       id="path59154"
       sodipodi:nodetypes="ccccc" /><path
       style="fill:#ffffff;fill-opacity:1;fill-rule:evenodd;stroke:#ffffff;stroke-width:0.264583;stroke-opacity:0.9587298"
       d="m 97.060413,685.18388 c 45.176077,-3.3481 67.560127,-20.043 82.237477,-29.11515 15.49441,10.04674 26.86384,12.63359 40.86336,13.28061 -16.95548,36.10385 -92.87966,32.48783 -123.100837,15.83454 z"
       id="path59155"
       sodipodi:nodetypes="cccc" /><path
       style="fill:#ffffff;fill-opacity:1;fill-rule:evenodd;stroke:#ffffff;stroke-width:0.264583;stroke-opacity:0.9587298"
       d="m -78.651996,647.38527 c 28.753603,9.27452 61.44673,9.88208 94.496492,9.70505 5.99487,17.6693 15.069732,33.3786 30.647508,44.94969 -67.302757,-3.29186 -99.286,-27.18677 -125.144,-54.65474 z"
       id="path59156"
       sodipodi:nodetypes="cccc" /><path
       style="fill:#ffffff;fill-opacity:1;fill-rule:evenodd;stroke:#ffffff;stroke-width:0.264583;stroke-opacity:0.9587298"
       d="m -110.83189,641.76658 c 2.44942,-0.31251 -44.63234,-19.84399 -48.01441,-80.70512 25.56719,29.38428 44.78591,40.23873 79.683526,59.76263 -12.468371,0.36282 -27.204036,-4.5647 -47.503666,-22.47482 4.15915,17.82953 9.96341,30.72374 15.83455,43.41731 z"
       id="path59157"
       sodipodi:nodetypes="ccccc" /><path
       style="fill:#ffffff;fill-opacity:1;fill-rule:evenodd;stroke:#ffffff;stroke-width:0.264583;stroke-opacity:0.9587298"
       d="m -152.71681,407.3131 c -98.29177,35.55838 -64.07609,137.5349 -49.03602,161.41022 -0.0557,-31.8673 10.17405,-57.83023 25.53959,-93.98569 5.44971,-18.17108 13.32558,-52.3828 23.49643,-67.42453 z"
       id="path59158"
       sodipodi:nodetypes="cccc" /><path
       style="fill:#ffffff;fill-opacity:1;fill-rule:evenodd;stroke:#ffffff;stroke-width:0.264583;stroke-opacity:0.9587298"
       d="m -91.421793,387.90302 c -77.361507,58.78003 -48.652387,136.17726 -32.179897,159.36706 7.48627,-102.33079 97.690174,-120.57356 154.769953,-112.885 -17.933176,-13.52126 -84.411485,-36.84661 -135.359853,-7.66189 4.01151,-10.73428 7.917025,-20.51455 12.769797,-38.82017 z"
       id="path59159"
       sodipodi:nodetypes="ccccc" /><path
       style="fill:#ffffff;fill-opacity:1;fill-rule:evenodd;stroke:#ffffff;stroke-width:0.264583;stroke-opacity:0.9587298"
       d="m -59.097363,383.73955 c 1.867622,-7.95782 21.785144,-51.85437 55.5317616,-44.87255 l -11.2374096,5.10792 c 26.102266,1.9148 46.344726,8.71276 67.424511,14.81296 -80.312492,4.7351 -96.273354,17.81781 -111.718863,24.95167 z"
       id="path59160"
       sodipodi:nodetypes="ccccc" /><path
       style="fill:#ffffff;fill-opacity:1;fill-rule:evenodd;stroke:#ffffff;stroke-width:0.264583;stroke-opacity:0.9587298"
       d="m -240.06222,430.29875 c 14.24844,-51.86437 93.60375,-167.47864 188.877265,-104.24012 -30.980882,2.7496 -57.704925,1.84158 -76.763315,11.9699 l 59.68548,0.80966 c -23.782981,28.03721 -97.80982,18.32971 -171.79943,91.46056 z"
       id="path59161"
       sodipodi:nodetypes="ccccc" /><path
       style="fill:#ffffff;fill-opacity:1;fill-rule:evenodd;stroke:#ffffff;stroke-width:0.264583;stroke-opacity:0.9587298"
       d="M -103.75251,260.04019 C 30.069863,233.915 77.387001,286.85561 85.342679,326.5285 76.616889,313.78083 51.183617,306.60232 34.104,296.63926 c 18.596082,19.32903 37.378159,39.49503 54.28861,51.23871 -58.822766,-9.8446 -116.629,-66.8987 -192.14512,-87.83778 z"
       id="path59162"
       sodipodi:nodetypes="ccccc" /><path
       style="fill:#ffffff;fill-opacity:1;fill-rule:evenodd;stroke:#ffffff;stroke-width:0.264583;stroke-opacity:0.9587298"
       d="m 59.113369,393.62681 c 47.405471,26.17772 91.341471,28.9365 131.756651,7.9298 -60.80414,-19.22498 -41.51797,-36.36538 -131.756651,-7.9298 z"
       id="path59163"
       sodipodi:nodetypes="ccc" /><path
       style="fill:#ffffff;fill-opacity:1;fill-rule:evenodd;stroke:#ffffff;stroke-width:0.264583;stroke-opacity:0.9587298"
       d="m 164.64068,448.52542 c 30.20517,-14.95423 39.28683,-38.02978 98.81749,-20.1295 -10.54124,5.49884 -10.83982,10.41735 -24.39938,16.46957 11.08422,0.25949 14.93556,1.32263 18.29954,2.43993 -25.75453,9.5109 -61.16597,5.6568 -92.71765,1.22 z"
       id="path59164"
       sodipodi:nodetypes="ccccc" /><path
       style="fill:#ffffff;fill-opacity:1;fill-rule:evenodd;stroke:#ffffff;stroke-width:0.264583;stroke-opacity:0.9587298"
       d="m 228.68906,335.06827 c -41.88561,-20.92685 -88.45277,-32.01257 -125.65682,-54.28861 11.60146,26.42549 9.63932,53.30311 70.75821,78.07802 19.26189,-7.84232 44.23672,-15.16528 54.89861,-23.78941 z"
       id="path59165"
       sodipodi:nodetypes="cccc" /><path
       style="fill:#ffffff;fill-opacity:1;fill-rule:evenodd;stroke:#ffffff;stroke-width:0.264583;stroke-opacity:0.9587298"
       d="m 179.28032,246.62053 c 42.56097,26.14207 126.32825,25.81913 141.51639,34.15913 -48.2109,49.09584 -114.40337,26.06682 -141.51639,-34.15913 z"
       id="path59166"
       sodipodi:nodetypes="ccc" /><path
       style="fill:#ffffff;fill-opacity:1;fill-rule:evenodd;stroke:#ffffff;stroke-width:0.264583;stroke-opacity:0.9587298"
       d="m 329.94647,255.16032 c 21.87275,9.01524 51.96641,-1.04445 67.70828,-39.649 -22.75893,-0.27329 -13.01681,5.6129 -67.70828,39.649 z"
       id="path59167"
       sodipodi:nodetypes="ccc" /><path
       style="fill:#ffffff;fill-opacity:1;fill-rule:evenodd;stroke:#ffffff;stroke-width:0.264583;stroke-opacity:0.9587298"
       d="m 446.45352,188.06202 c -0.81214,11.58759 -0.5441,21.23085 -5.48986,40.25897 7.04868,-3.54688 11.34684,-2.50958 15.8596,-1.82994 -10.56512,27.82886 -32.99543,31.07983 -55.50861,34.15914 22.84882,-22.63555 25.97746,-48.03552 45.13887,-72.58817 z"
       id="path59168"
       sodipodi:nodetypes="ccccc" /><path
       style="fill:#1a1a1a;fill-opacity:1;fill-rule:evenodd;stroke:#ffffff;stroke-width:0.264583;stroke-opacity:0.9587298"
       d="m 227.97098,109.31292 c -2.31521,31.02338 19.60633,39.64199 33.98205,37.919 20.03959,-4.34785 30.77221,-30.33014 5.38739,-49.108205 19.40762,-3.772425 61.45882,19.254365 46.00009,61.747875 -5.33407,19.29244 -40.46308,49.1283 -84.95511,27.14419 -23.99431,-14.56047 -34.24729,-57.64638 -0.41442,-77.70286 z"
       id="path59169"
       sodipodi:nodetypes="cccccc" /><ellipse
       style="fill:#1a1a1a;fill-opacity:1;fill-rule:evenodd;stroke:#ffffff;stroke-width:0.264583;stroke-opacity:0.9587298"
       id="path59170"
       cx="-289.20975"
       cy="-362.43399"
       rx="25.95999"
       ry="25.335949" /><ellipse
       style="fill:#1a1a1a;fill-opacity:1;fill-rule:evenodd;stroke:#ffffff;stroke-width:0.264583;stroke-opacity:0.9587298"
       id="path59171"
       cx="57.033768"
       cy="30.84584"
       rx="14.893439"
       ry="14.546183" /><ellipse
       style="fill:#1a1a1a;fill-opacity:1;fill-rule:evenodd;stroke:#ffffff;stroke-width:0.264583;stroke-opacity:0.9587298"
       id="path59172"
       cx="-254.6115"
       cy="287.35565"
       rx="16.150248"
       ry="15.719575" /><ellipse
       style="fill:#ffffff;fill-opacity:1;fill-rule:evenodd;stroke:#ffffff;stroke-width:0.264583;stroke-opacity:0.9587298"
       id="path59173"
       cx="-154.94164"
       cy="-180.12556"
       rx="17.749697"
       ry="17.314657" /><path
       style="fill:url(#linearGradient15);fill-opacity:1;fill-rule:evenodd;stroke:none;stroke-width:0.265;stroke-dasharray:none;opacity:0.5"
       d="m 163.75346,-584.19998 c -29.05214,134.18437 -125.763059,144.23209 -213.757563,219.6607 -25.649206,21.98641 -20.993519,78.54778 -41.654576,97.54213 -29.564181,27.17927 -35.672631,0.12239 -80.190651,24.06702 -39.71015,21.35866 -30.86599,49.66045 -46.63802,70.06691 8.6697,-4.94611 11.53418,6.87843 37.33256,-47.55053 140.483034,-16.12969 120.223038,-85.84039 147.945576,-139.55691 112.16861,-52.44169 229.202244,-102.55083 196.962674,-224.22932 z"
       id="path59174"
       sodipodi:nodetypes="cssscccc" /><path
       style="opacity:0.5;fill:url(#linearGradient4);fill-opacity:0.5;fill-rule:evenodd;stroke:none;stroke-width:0.264999;stroke-opacity:1"
       d="m -331.36717,18.407113 c 9.13852,-64.281902 20.15345,-50.763442 35.38496,-69.920705 0.58274,9.509385 1.06825,28.368291 4.2462,41.6127226 13.92645,-6.9156846 15.10201,-12.2313606 23.21253,-15.5693856 l 7.36008,11.142305 c -25.5051,12.5324233 -57.68358,16.8341382 -63.12678,44.624406 -4.476,-2.334649 -11.82144,-2.462042 -7.07699,-11.889343 z"
       id="path1"
       sodipodi:nodetypes="ccccccc" /><path
       style="opacity:0.5;fill:url(#linearGradient6);fill-opacity:0.5;fill-rule:evenodd;stroke:none;stroke-width:0.264999;stroke-opacity:1"
       d="m -324.29018,30.296456 c 6.84598,-33.6095206 53.58575,-33.4958381 69.35454,-48.972787 21.58627,-24.883964 21.2712,-41.146457 42.46195,-59.729819 21.11603,-10.885829 51.18922,-14.106547 63.12677,-20.947909 l 12.73858,2.264648 c -57.57058,47.149754 -110.47527,99.8137288 -175.50942,138.142899 -7.36969,-1.477902 -13.0384,-4.038247 -12.17242,-10.757032 z"
       id="path2"
       sodipodi:nodetypes="ccccccc" /><path
       style="fill:url(#linearGradient17);fill-rule:evenodd;stroke:none;stroke-width:0.264999;stroke-opacity:1;opacity:0.5;fill-opacity:0.5"
       d="m -74.61389,-63.686018 13.021672,9.907787 -99.927142,-4.52927 c -13.13494,1.356646 -18.54857,9.576682 -25.19408,16.701717 89.967652,1.327601 197.349301,18.352327 237.220787,-25.477179 z"
       id="path3"
       sodipodi:nodetypes="cccccc" /></g></svg>
